<svg width="1680" height="116" viewBox="0 0 1680 116" fill="none" xmlns="http://www.w3.org/2000/svg">
<defs>
    <style>
      .blink {
        animation: blink 1s infinite;
      }

      @keyframes blink {
        0%, 100% {
          opacity: 1;
        }
        50% {
          opacity: 0;
        }
      }
    </style>
  </defs>



<path d="M493.536 71.776H493.296C493.04 72.416 492.704 73.04 492.288 73.648C491.904 74.224 491.424 74.736 490.848 75.184C490.272 75.6 489.6 75.936 488.832 76.192C488.064 76.448 487.168 76.576 486.144 76.576C483.648 76.576 481.632 75.76 480.096 74.128C478.56 72.496 477.792 70.176 477.792 67.168V51.232H483.024V66.4C483.024 70.336 484.736 72.304 488.16 72.304C488.832 72.304 489.488 72.224 490.128 72.064C490.768 71.872 491.344 71.6 491.856 71.248C492.368 70.896 492.768 70.464 493.056 69.952C493.376 69.408 493.536 68.768 493.536 68.032V51.232H498.768V76H493.536V71.776ZM517.709 76.576C515.021 76.576 512.701 76.144 510.749 75.28C508.829 74.416 507.277 73.264 506.093 71.824L509.309 68.944C510.397 70.128 511.613 71.04 512.957 71.68C514.333 72.288 515.949 72.592 517.805 72.592C519.501 72.592 520.861 72.304 521.885 71.728C522.941 71.152 523.469 70.256 523.469 69.04C523.469 68.528 523.373 68.096 523.181 67.744C522.989 67.392 522.717 67.104 522.365 66.88C522.013 66.656 521.597 66.48 521.117 66.352C520.669 66.224 520.189 66.128 519.677 66.064L515.741 65.44C514.781 65.312 513.805 65.104 512.813 64.816C511.821 64.528 510.925 64.128 510.125 63.616C509.357 63.072 508.717 62.384 508.205 61.552C507.725 60.72 507.485 59.664 507.485 58.384C507.485 55.856 508.445 53.936 510.365 52.624C512.317 51.312 514.877 50.656 518.045 50.656C520.349 50.656 522.333 51.008 523.997 51.712C525.693 52.384 527.101 53.328 528.221 54.544L525.293 57.616C524.653 56.88 523.741 56.208 522.557 55.6C521.373 54.96 519.805 54.64 517.853 54.64C514.365 54.64 512.621 55.744 512.621 57.952C512.621 59.008 512.989 59.744 513.725 60.16C514.493 60.544 515.389 60.8 516.413 60.928L520.349 61.552C521.341 61.712 522.317 61.92 523.277 62.176C524.269 62.432 525.149 62.832 525.917 63.376C526.717 63.888 527.357 64.56 527.837 65.392C528.349 66.224 528.605 67.28 528.605 68.56C528.605 71.056 527.629 73.024 525.677 74.464C523.757 75.872 521.101 76.576 517.709 76.576ZM547.451 76.576C545.562 76.576 543.866 76.272 542.362 75.664C540.858 75.056 539.594 74.192 538.57 73.072C537.546 71.952 536.762 70.608 536.218 69.04C535.674 67.44 535.402 65.648 535.402 63.664C535.402 61.68 535.674 59.888 536.218 58.288C536.794 56.688 537.578 55.328 538.57 54.208C539.594 53.056 540.826 52.176 542.266 51.568C543.706 50.96 545.306 50.656 547.066 50.656C548.794 50.656 550.363 50.96 551.771 51.568C553.179 52.144 554.378 52.976 555.37 54.064C556.363 55.152 557.115 56.448 557.626 57.952C558.17 59.456 558.443 61.12 558.443 62.944V64.912H540.682V65.728C540.682 67.68 541.29 69.28 542.506 70.528C543.722 71.744 545.402 72.352 547.547 72.352C549.146 72.352 550.506 72.016 551.627 71.344C552.779 70.64 553.707 69.712 554.411 68.56L557.675 71.44C556.843 72.88 555.563 74.096 553.835 75.088C552.139 76.08 550.011 76.576 547.451 76.576ZM547.066 54.64C546.138 54.64 545.274 54.8 544.474 55.12C543.706 55.44 543.034 55.904 542.458 56.512C541.914 57.088 541.482 57.776 541.162 58.576C540.842 59.376 540.682 60.256 540.682 61.216V61.552H553.115V61.072C553.115 59.12 552.555 57.568 551.435 56.416C550.346 55.232 548.89 54.64 547.066 54.64ZM565.432 71.776H572.008V55.456H565.432V51.232H577.24V57.808H577.528C577.752 56.944 578.072 56.112 578.488 55.312C578.904 54.512 579.432 53.824 580.072 53.248C580.712 52.64 581.496 52.16 582.424 51.808C583.352 51.424 584.44 51.232 585.688 51.232H588.664V56.224H583.768C581.848 56.224 580.28 56.8 579.064 57.952C577.848 59.072 577.24 60.592 577.24 62.512V71.776H586.216V76H565.432V71.776ZM599.637 50.224H599.205V76H594.501V42.496H601.413L611.253 68.272H611.685V42.496H616.389V76H609.477L599.637 50.224ZM643.922 76C642.418 76 641.282 75.616 640.514 74.848C639.778 74.08 639.33 73.072 639.17 71.824H638.93C638.45 73.328 637.57 74.496 636.29 75.328C635.042 76.16 633.442 76.576 631.49 76.576C628.962 76.576 626.946 75.92 625.442 74.608C623.938 73.264 623.186 71.424 623.186 69.088C623.186 66.688 624.066 64.864 625.826 63.616C627.618 62.336 630.354 61.696 634.034 61.696H638.786V59.776C638.786 56.416 637.01 54.736 633.458 54.736C631.858 54.736 630.562 55.056 629.57 55.696C628.578 56.304 627.746 57.12 627.074 58.144L623.954 55.6C624.658 54.256 625.842 53.104 627.506 52.144C629.17 51.152 631.314 50.656 633.938 50.656C637.074 50.656 639.538 51.408 641.33 52.912C643.122 54.416 644.018 56.592 644.018 59.44V71.872H647.138V76H643.922ZM632.978 72.736C634.674 72.736 636.066 72.352 637.154 71.584C638.242 70.816 638.786 69.824 638.786 68.608V65.008H634.13C630.354 65.008 628.466 66.144 628.466 68.416V69.376C628.466 70.496 628.866 71.344 629.666 71.92C630.466 72.464 631.57 72.736 632.978 72.736ZM651.68 76V51.232H656.144V54.448H656.384C656.768 53.392 657.312 52.496 658.016 51.76C658.752 51.024 659.792 50.656 661.136 50.656C662.448 50.656 663.456 51.024 664.16 51.76C664.896 52.464 665.36 53.44 665.552 54.688H665.744C666.192 53.568 666.816 52.624 667.616 51.856C668.416 51.056 669.568 50.656 671.072 50.656C672.992 50.656 674.32 51.328 675.056 52.672C675.824 54.016 676.208 55.984 676.208 58.576V76H671.744V59.248C671.744 57.52 671.536 56.336 671.12 55.696C670.704 55.024 670.032 54.688 669.104 54.688C668.272 54.688 667.568 54.976 666.992 55.552C666.448 56.096 666.176 56.928 666.176 58.048V76H661.712V59.248C661.712 57.52 661.504 56.336 661.088 55.696C660.704 55.024 660.048 54.688 659.12 54.688C658.256 54.688 657.536 54.976 656.96 55.552C656.416 56.096 656.144 56.928 656.144 58.048V76H651.68ZM693.757 76.576C691.869 76.576 690.173 76.272 688.669 75.664C687.165 75.056 685.901 74.192 684.877 73.072C683.853 71.952 683.069 70.608 682.525 69.04C681.981 67.44 681.709 65.648 681.709 63.664C681.709 61.68 681.981 59.888 682.525 58.288C683.101 56.688 683.885 55.328 684.877 54.208C685.901 53.056 687.133 52.176 688.573 51.568C690.013 50.96 691.613 50.656 693.373 50.656C695.101 50.656 696.669 50.96 698.077 51.568C699.485 52.144 700.685 52.976 701.677 54.064C702.669 55.152 703.421 56.448 703.933 57.952C704.477 59.456 704.749 61.12 704.749 62.944V64.912H686.989V65.728C686.989 67.68 687.597 69.28 688.813 70.528C690.029 71.744 691.709 72.352 693.853 72.352C695.453 72.352 696.813 72.016 697.933 71.344C699.085 70.64 700.013 69.712 700.717 68.56L703.981 71.44C703.149 72.88 701.869 74.096 700.141 75.088C698.445 76.08 696.317 76.576 693.757 76.576ZM693.373 54.64C692.445 54.64 691.581 54.8 690.781 55.12C690.013 55.44 689.341 55.904 688.765 56.512C688.221 57.088 687.789 57.776 687.469 58.576C687.149 59.376 686.989 60.256 686.989 61.216V61.552H699.421V61.072C699.421 59.12 698.861 57.568 697.741 56.416C696.653 55.232 695.197 54.64 693.373 54.64ZM858.62 42.496H869.996C872.876 42.496 875.132 43.28 876.764 44.848C878.396 46.416 879.212 48.512 879.212 51.136C879.212 53.152 878.716 54.736 877.724 55.888C876.764 57.04 875.516 57.856 873.98 58.336V58.48C875.868 58.928 877.42 59.776 878.636 61.024C879.852 62.24 880.46 64.016 880.46 66.352C880.46 67.696 880.236 68.96 879.788 70.144C879.34 71.328 878.7 72.352 877.868 73.216C877.068 74.08 876.108 74.768 874.988 75.28C873.9 75.76 872.716 76 871.436 76H858.62V42.496ZM870.236 72.496C872.092 72.496 873.548 72.08 874.604 71.248C875.66 70.416 876.188 69.136 876.188 67.408V65.44C876.188 63.744 875.66 62.48 874.604 61.648C873.548 60.784 872.092 60.352 870.236 60.352H862.652V72.496H870.236ZM869.564 57.04C871.26 57.04 872.588 56.672 873.548 55.936C874.508 55.168 874.988 54.016 874.988 52.48V50.608C874.988 49.072 874.508 47.92 873.548 47.152C872.588 46.384 871.26 46 869.564 46H862.652V57.04H869.564ZM899.594 45.76C898.474 45.76 897.69 45.536 897.242 45.088C896.794 44.608 896.57 44.016 896.57 43.312V42.544C896.57 41.84 896.794 41.264 897.242 40.816C897.69 40.336 898.474 40.096 899.594 40.096C900.714 40.096 901.498 40.336 901.946 40.816C902.394 41.264 902.618 41.84 902.618 42.544V43.312C902.618 44.016 902.394 44.608 901.946 45.088C901.498 45.536 900.714 45.76 899.594 45.76ZM888.746 72.736H897.674V54.496H888.746V51.232H901.514V72.736H909.866V76H888.746V72.736ZM917.479 51.232H921.319V55.264H921.511C923.111 52.192 925.655 50.656 929.143 50.656C932.183 50.656 934.551 51.792 936.247 54.064C937.975 56.336 938.839 59.52 938.839 63.616C938.839 67.712 937.975 70.896 936.247 73.168C934.551 75.44 932.183 76.576 929.143 76.576C925.655 76.576 923.111 75.04 921.511 71.968H921.319V85.6H917.479V51.232ZM927.655 73.168C929.895 73.168 931.623 72.496 932.839 71.152C934.087 69.776 934.711 67.968 934.711 65.728V61.504C934.711 59.264 934.087 57.472 932.839 56.128C931.623 54.752 929.895 54.064 927.655 54.064C926.791 54.064 925.975 54.176 925.207 54.4C924.439 54.624 923.767 54.96 923.191 55.408C922.615 55.824 922.151 56.352 921.799 56.992C921.479 57.6 921.319 58.32 921.319 59.152V68.08C921.319 68.912 921.479 69.648 921.799 70.288C922.151 70.896 922.615 71.424 923.191 71.872C923.767 72.288 924.439 72.608 925.207 72.832C925.975 73.056 926.791 73.168 927.655 73.168ZM962.436 71.968H962.244C961.988 72.576 961.668 73.168 961.284 73.744C960.9 74.288 960.42 74.768 959.844 75.184C959.3 75.6 958.644 75.936 957.876 76.192C957.108 76.448 956.212 76.576 955.188 76.576C952.596 76.576 950.516 75.76 948.948 74.128C947.38 72.464 946.596 70.128 946.596 67.12V51.232H950.436V66.448C950.436 68.72 950.932 70.416 951.924 71.536C952.916 72.624 954.372 73.168 956.292 73.168C957.06 73.168 957.812 73.072 958.548 72.88C959.284 72.688 959.94 72.4 960.516 72.016C961.092 71.632 961.556 71.152 961.908 70.576C962.26 69.968 962.436 69.248 962.436 68.416V51.232H966.276V76H962.436V71.968ZM975.281 72.736H983.921V43.744H975.281V40.48H987.761V72.736H996.401V76H975.281V72.736ZM1006.46 76V42.496H1010.49V72.496H1026.38V76H1006.46ZM1053.72 76C1052.22 76 1051.15 75.616 1050.51 74.848C1049.87 74.08 1049.47 73.12 1049.31 71.968H1049.07C1048.52 73.408 1047.64 74.544 1046.43 75.376C1045.24 76.176 1043.64 76.576 1041.63 76.576C1039.04 76.576 1036.97 75.904 1035.44 74.56C1033.9 73.216 1033.13 71.376 1033.13 69.04C1033.13 66.736 1033.96 64.96 1035.63 63.712C1037.32 62.464 1040.04 61.84 1043.79 61.84H1049.07V59.392C1049.07 57.568 1048.56 56.208 1047.53 55.312C1046.51 54.384 1045.05 53.92 1043.16 53.92C1041.5 53.92 1040.14 54.256 1039.08 54.928C1038.03 55.568 1037.18 56.448 1036.54 57.568L1033.95 55.648C1034.27 55.008 1034.7 54.384 1035.24 53.776C1035.79 53.168 1036.46 52.64 1037.26 52.192C1038.06 51.712 1038.97 51.344 1040 51.088C1041.02 50.8 1042.16 50.656 1043.4 50.656C1046.32 50.656 1048.62 51.392 1050.32 52.864C1052.04 54.336 1052.91 56.384 1052.91 59.008V72.64H1056.36V76H1053.72ZM1042.3 73.36C1043.29 73.36 1044.19 73.248 1044.99 73.024C1045.82 72.768 1046.54 72.448 1047.15 72.064C1047.76 71.648 1048.22 71.168 1048.54 70.624C1048.89 70.048 1049.07 69.44 1049.07 68.8V64.72H1043.79C1041.48 64.72 1039.8 65.04 1038.75 65.68C1037.69 66.32 1037.16 67.248 1037.16 68.464V69.472C1037.16 70.752 1037.61 71.728 1038.51 72.4C1039.44 73.04 1040.7 73.36 1042.3 73.36ZM1061.82 76V51.232H1065.37V54.112H1065.56C1065.94 53.152 1066.49 52.336 1067.19 51.664C1067.9 50.992 1068.94 50.656 1070.31 50.656C1071.75 50.656 1072.82 51.024 1073.53 51.76C1074.23 52.464 1074.66 53.392 1074.82 54.544H1074.97C1075.42 53.424 1076.06 52.496 1076.89 51.76C1077.72 51.024 1078.87 50.656 1080.34 50.656C1082.36 50.656 1083.7 51.36 1084.38 52.768C1085.08 54.176 1085.43 56.192 1085.43 58.816V76H1081.88V59.44C1081.88 57.328 1081.66 55.872 1081.21 55.072C1080.79 54.24 1080.01 53.824 1078.86 53.824C1077.83 53.824 1077 54.16 1076.36 54.832C1075.72 55.472 1075.4 56.464 1075.4 57.808V76H1071.85V59.44C1071.85 57.328 1071.62 55.872 1071.18 55.072C1070.76 54.24 1069.99 53.824 1068.87 53.824C1067.85 53.824 1067 54.16 1066.33 54.832C1065.69 55.472 1065.37 56.464 1065.37 57.808V76H1061.82ZM1103.17 76.576C1100.58 76.576 1098.34 76.144 1096.45 75.28C1094.6 74.384 1093.01 73.2 1091.7 71.728L1094.29 69.472C1095.48 70.72 1096.77 71.68 1098.18 72.352C1099.59 73.024 1101.29 73.36 1103.27 73.36C1105.19 73.36 1106.76 73.024 1107.97 72.352C1109.22 71.648 1109.85 70.56 1109.85 69.088C1109.85 68.448 1109.72 67.92 1109.46 67.504C1109.24 67.056 1108.92 66.704 1108.5 66.448C1108.09 66.192 1107.62 66 1107.11 65.872C1106.6 65.712 1106.05 65.584 1105.48 65.488L1101.59 64.912C1100.73 64.784 1099.78 64.608 1098.76 64.384C1097.77 64.16 1096.85 63.808 1096.02 63.328C1095.19 62.816 1094.49 62.144 1093.91 61.312C1093.37 60.48 1093.09 59.392 1093.09 58.048C1093.09 56.8 1093.33 55.728 1093.81 54.832C1094.33 53.904 1095.03 53.136 1095.93 52.528C1096.82 51.888 1097.88 51.424 1099.09 51.136C1100.31 50.816 1101.64 50.656 1103.08 50.656C1105.32 50.656 1107.25 51.008 1108.89 51.712C1110.55 52.416 1111.97 53.392 1113.16 54.64L1110.66 56.992C1110.37 56.64 1110.01 56.288 1109.56 55.936C1109.14 55.552 1108.61 55.216 1107.97 54.928C1107.37 54.608 1106.65 54.352 1105.81 54.16C1104.98 53.968 1104.02 53.872 1102.93 53.872C1100.98 53.872 1099.48 54.208 1098.42 54.88C1097.4 55.552 1096.89 56.528 1096.89 57.808C1096.89 58.448 1097 58.992 1097.22 59.44C1097.48 59.856 1097.81 60.192 1098.23 60.448C1098.65 60.704 1099.11 60.912 1099.62 61.072C1100.17 61.2 1100.71 61.312 1101.25 61.408L1105.14 61.984C1106.04 62.112 1106.98 62.288 1107.97 62.512C1108.97 62.736 1109.88 63.104 1110.71 63.616C1111.54 64.096 1112.23 64.752 1112.77 65.584C1113.35 66.416 1113.64 67.504 1113.64 68.848C1113.64 71.312 1112.68 73.216 1110.76 74.56C1108.87 75.904 1106.34 76.576 1103.17 76.576ZM1141.51 76C1140 76 1138.93 75.616 1138.29 74.848C1137.65 74.08 1137.25 73.12 1137.09 71.968H1136.85C1136.31 73.408 1135.43 74.544 1134.21 75.376C1133.03 76.176 1131.43 76.576 1129.41 76.576C1126.82 76.576 1124.76 75.904 1123.22 74.56C1121.68 73.216 1120.92 71.376 1120.92 69.04C1120.92 66.736 1121.75 64.96 1123.41 63.712C1125.11 62.464 1127.83 61.84 1131.57 61.84H1136.85V59.392C1136.85 57.568 1136.34 56.208 1135.32 55.312C1134.29 54.384 1132.84 53.92 1130.95 53.92C1129.28 53.92 1127.92 54.256 1126.87 54.928C1125.81 55.568 1124.96 56.448 1124.32 57.568L1121.73 55.648C1122.05 55.008 1122.48 54.384 1123.03 53.776C1123.57 53.168 1124.24 52.64 1125.04 52.192C1125.84 51.712 1126.76 51.344 1127.78 51.088C1128.8 50.8 1129.94 50.656 1131.19 50.656C1134.1 50.656 1136.4 51.392 1138.1 52.864C1139.83 54.336 1140.69 56.384 1140.69 59.008V72.64H1144.15V76H1141.51ZM1130.08 73.36C1131.08 73.36 1131.97 73.248 1132.77 73.024C1133.6 72.768 1134.32 72.448 1134.93 72.064C1135.54 71.648 1136 71.168 1136.32 70.624C1136.68 70.048 1136.85 69.44 1136.85 68.8V64.72H1131.57C1129.27 64.72 1127.59 65.04 1126.53 65.68C1125.48 66.32 1124.95 67.248 1124.95 68.464V69.472C1124.95 70.752 1125.4 71.728 1126.29 72.4C1127.22 73.04 1128.48 73.36 1130.08 73.36ZM1150.85 72.736H1159.49V43.744H1150.85V40.48H1163.33V72.736H1171.97V76H1150.85V72.736Z" fill="#005391"/>
<path d="M751.751 76.432C750.439 76.432 749.511 76.16 748.967 75.616C748.455 75.072 748.199 74.384 748.199 73.552V72.688C748.199 71.856 748.455 71.168 748.967 70.624C749.511 70.08 750.439 69.808 751.751 69.808C753.063 69.808 753.975 70.08 754.487 70.624C755.031 71.168 755.303 71.856 755.303 72.688V73.552C755.303 74.384 755.031 75.072 754.487 75.616C753.975 76.16 753.063 76.432 751.751 76.432ZM751.751 57.424C750.439 57.424 749.511 57.152 748.967 56.608C748.455 56.064 748.199 55.376 748.199 54.544V53.68C748.199 52.848 748.455 52.16 748.967 51.616C749.511 51.072 750.439 50.8 751.751 50.8C753.063 50.8 753.975 51.072 754.487 51.616C755.031 52.16 755.303 52.848 755.303 53.68V54.544C755.303 55.376 755.031 56.064 754.487 56.608C753.975 57.152 753.063 57.424 751.751 57.424ZM769.588 58.144V54.88H792.436V58.144H769.588ZM769.588 67.744V64.48H792.436V67.744H769.588ZM834.591 40.48H837.807L835.263 53.776H829.071L834.591 40.48ZM846.063 40.48H849.279L846.735 53.776H840.543L846.063 40.48ZM1184.09 40.48H1190.29L1184.77 53.776H1181.55L1184.09 40.48ZM1195.57 40.48H1201.76L1196.24 53.776H1193.02L1195.57 40.48Z" fill="#2383CB"/>
<rect x="1230" y="20" width="3" height="76" rx="1.5" fill="#0665AB" class="blink" />
</svg>
