<svg width="1680" height="93" viewBox="0 0 1680 93" fill="none" xmlns="http://www.w3.org/2000/svg">

<defs>
   <style>

       @keyframes floatingAnimationUp {
      0%, 100% {
        transform: translateY(0);
      }
      50% {
        transform: translateY(-5px);
      }
    }
    @keyframes floatingAnimation {
      0%, 100% {
        transform: translateY(0);
      }
      50% {
        transform: translateY(10px);
      }
    }

    .floating-animation {
      animation: floatingAnimation 3s infinite cubic-bezier(1,.34,.2,.84);
      animation-delay: 1s;
    }
        .floating-animation-up {
      animation: floatingAnimationUp 3s infinite cubic-bezier(1,.34,.2,.84);
      animation-delay: 1s;
    }
  </style>
  </defs>


<rect x="473" y="7" width="768" height="72" fill="#0665AB" class="floating-animation"/>
<rect x="473" y="7" width="768" height="60" fill="#005390" class="floating-animation-up"/>

<path class="floating-animation-up" d="M506.16 48.312L514.512 26.76H516.24L507.888 48.312H506.16ZM520.791 48.312L529.143 26.76H530.871L522.519 48.312H520.791ZM548.612 32.616H550.316L551.732 43.32H551.948L554.06 32.616H556.172L558.284 43.32H558.5L559.916 32.616H561.572L559.676 45H557.18L555.212 34.632H555.02L553.004 45H550.508L548.612 32.616ZM574.402 45C573.65 45 573.114 44.808 572.794 44.424C572.474 44.04 572.274 43.56 572.194 42.984H572.074C571.802 43.704 571.362 44.272 570.754 44.688C570.162 45.088 569.362 45.288 568.354 45.288C567.058 45.288 566.026 44.952 565.258 44.28C564.49 43.608 564.106 42.688 564.106 41.52C564.106 40.368 564.522 39.48 565.354 38.856C566.202 38.232 567.562 37.92 569.434 37.92H572.074V36.696C572.074 35.784 571.818 35.104 571.306 34.656C570.794 34.192 570.066 33.96 569.122 33.96C568.29 33.96 567.61 34.128 567.082 34.464C566.554 34.784 566.13 35.224 565.81 35.784L564.514 34.824C564.674 34.504 564.89 34.192 565.162 33.888C565.434 33.584 565.77 33.32 566.17 33.096C566.57 32.856 567.026 32.672 567.538 32.544C568.05 32.4 568.618 32.328 569.242 32.328C570.698 32.328 571.85 32.696 572.698 33.432C573.562 34.168 573.994 35.192 573.994 36.504V43.32H575.722V45H574.402ZM568.69 43.68C569.186 43.68 569.634 43.624 570.034 43.512C570.45 43.384 570.81 43.224 571.114 43.032C571.418 42.824 571.65 42.584 571.81 42.312C571.986 42.024 572.074 41.72 572.074 41.4V39.36H569.434C568.282 39.36 567.442 39.52 566.914 39.84C566.386 40.16 566.122 40.624 566.122 41.232V41.736C566.122 42.376 566.346 42.864 566.794 43.2C567.258 43.52 567.89 43.68 568.69 43.68ZM579.505 45V32.616H581.425V34.632H581.521C581.649 34.328 581.809 34.04 582.001 33.768C582.193 33.48 582.425 33.232 582.697 33.024C582.985 32.816 583.321 32.648 583.705 32.52C584.089 32.392 584.537 32.328 585.049 32.328C586.345 32.328 587.385 32.744 588.169 33.576C588.953 34.392 589.345 35.552 589.345 37.056V45H587.425V37.392C587.425 36.256 587.177 35.416 586.681 34.872C586.185 34.312 585.457 34.032 584.497 34.032C584.113 34.032 583.737 34.08 583.369 34.176C583.001 34.272 582.673 34.416 582.385 34.608C582.097 34.8 581.865 35.048 581.689 35.352C581.513 35.656 581.425 36.008 581.425 36.408V45H579.505ZM599.584 45C598.64 45 597.944 44.736 597.496 44.208C597.064 43.68 596.848 43 596.848 42.168V34.248H592.72V32.616H595.792C596.208 32.616 596.496 32.536 596.656 32.376C596.832 32.2 596.92 31.904 596.92 31.488V28.248H598.768V32.616H604.408V34.248H598.768V43.368H604.408V45H599.584ZM613.758 45.288C612.462 45.288 611.342 45.072 610.398 44.64C609.47 44.192 608.678 43.6 608.022 42.864L609.318 41.736C609.91 42.36 610.558 42.84 611.262 43.176C611.966 43.512 612.814 43.68 613.806 43.68C614.766 43.68 615.55 43.512 616.158 43.176C616.782 42.824 617.094 42.28 617.094 41.544C617.094 41.224 617.03 40.96 616.902 40.752C616.79 40.528 616.63 40.352 616.422 40.224C616.214 40.096 615.982 40 615.726 39.936C615.47 39.856 615.198 39.792 614.91 39.744L612.966 39.456C612.534 39.392 612.062 39.304 611.55 39.192C611.054 39.08 610.598 38.904 610.182 38.664C609.766 38.408 609.414 38.072 609.126 37.656C608.854 37.24 608.718 36.696 608.718 36.024C608.718 35.4 608.838 34.864 609.078 34.416C609.334 33.952 609.686 33.568 610.134 33.264C610.582 32.944 611.11 32.712 611.718 32.568C612.326 32.408 612.99 32.328 613.71 32.328C614.83 32.328 615.798 32.504 616.614 32.856C617.446 33.208 618.158 33.696 618.75 34.32L617.502 35.496C617.358 35.32 617.174 35.144 616.95 34.968C616.742 34.776 616.478 34.608 616.158 34.464C615.854 34.304 615.494 34.176 615.078 34.08C614.662 33.984 614.182 33.936 613.638 33.936C612.662 33.936 611.91 34.104 611.382 34.44C610.87 34.776 610.614 35.264 610.614 35.904C610.614 36.224 610.67 36.496 610.782 36.72C610.91 36.928 611.078 37.096 611.286 37.224C611.494 37.352 611.726 37.456 611.982 37.536C612.254 37.6 612.526 37.656 612.798 37.704L614.742 37.992C615.19 38.056 615.662 38.144 616.158 38.256C616.654 38.368 617.11 38.552 617.526 38.808C617.942 39.048 618.286 39.376 618.558 39.792C618.846 40.208 618.99 40.752 618.99 41.424C618.99 42.656 618.51 43.608 617.55 44.28C616.606 44.952 615.342 45.288 613.758 45.288ZM643.476 45C642.532 45 641.836 44.736 641.388 44.208C640.956 43.68 640.74 43 640.74 42.168V34.248H636.612V32.616H639.684C640.1 32.616 640.388 32.536 640.548 32.376C640.724 32.2 640.812 31.904 640.812 31.488V28.248H642.66V32.616H648.3V34.248H642.66V43.368H648.3V45H643.476ZM657.506 45.288C656.642 45.288 655.858 45.136 655.154 44.832C654.466 44.528 653.874 44.096 653.378 43.536C652.898 42.96 652.53 42.28 652.274 41.496C652.018 40.696 651.89 39.8 651.89 38.808C651.89 37.832 652.018 36.944 652.274 36.144C652.53 35.344 652.898 34.664 653.378 34.104C653.874 33.528 654.466 33.088 655.154 32.784C655.858 32.48 656.642 32.328 657.506 32.328C658.37 32.328 659.146 32.48 659.834 32.784C660.538 33.088 661.13 33.528 661.61 34.104C662.106 34.664 662.482 35.344 662.738 36.144C662.994 36.944 663.122 37.832 663.122 38.808C663.122 39.8 662.994 40.696 662.738 41.496C662.482 42.28 662.106 42.96 661.61 43.536C661.13 44.096 660.538 44.528 659.834 44.832C659.146 45.136 658.37 45.288 657.506 45.288ZM657.506 43.632C658.578 43.632 659.442 43.312 660.098 42.672C660.754 42.032 661.082 41.04 661.082 39.696V37.92C661.082 36.576 660.754 35.584 660.098 34.944C659.442 34.304 658.578 33.984 657.506 33.984C656.434 33.984 655.57 34.304 654.914 34.944C654.258 35.584 653.93 36.576 653.93 37.92V39.696C653.93 41.04 654.258 42.032 654.914 42.672C655.57 43.312 656.434 43.632 657.506 43.632ZM687.2 45.288C686.304 45.288 685.504 45.136 684.8 44.832C684.112 44.512 683.528 44.072 683.048 43.512C682.568 42.952 682.2 42.272 681.944 41.472C681.704 40.672 681.584 39.784 681.584 38.808C681.584 37.832 681.712 36.944 681.968 36.144C682.224 35.344 682.592 34.664 683.072 34.104C683.552 33.528 684.136 33.088 684.824 32.784C685.512 32.48 686.296 32.328 687.176 32.328C688.376 32.328 689.352 32.592 690.104 33.12C690.856 33.648 691.408 34.336 691.76 35.184L690.224 36C690 35.36 689.624 34.864 689.096 34.512C688.584 34.16 687.944 33.984 687.176 33.984C686.616 33.984 686.112 34.08 685.664 34.272C685.232 34.448 684.864 34.704 684.56 35.04C684.256 35.376 684.024 35.776 683.864 36.24C683.72 36.704 683.648 37.208 683.648 37.752V39.864C683.648 40.408 683.72 40.912 683.864 41.376C684.024 41.84 684.256 42.24 684.56 42.576C684.864 42.912 685.24 43.176 685.688 43.368C686.136 43.544 686.648 43.632 687.224 43.632C688.056 43.632 688.744 43.44 689.288 43.056C689.832 42.672 690.264 42.144 690.584 41.472L691.952 42.408C691.584 43.24 691.008 43.928 690.224 44.472C689.456 45.016 688.448 45.288 687.2 45.288ZM701.398 45.288C700.534 45.288 699.75 45.136 699.046 44.832C698.358 44.528 697.766 44.096 697.27 43.536C696.79 42.96 696.422 42.28 696.166 41.496C695.91 40.696 695.782 39.8 695.782 38.808C695.782 37.832 695.91 36.944 696.166 36.144C696.422 35.344 696.79 34.664 697.27 34.104C697.766 33.528 698.358 33.088 699.046 32.784C699.75 32.48 700.534 32.328 701.398 32.328C702.262 32.328 703.038 32.48 703.726 32.784C704.43 33.088 705.022 33.528 705.502 34.104C705.998 34.664 706.374 35.344 706.63 36.144C706.886 36.944 707.014 37.832 707.014 38.808C707.014 39.8 706.886 40.696 706.63 41.496C706.374 42.28 705.998 42.96 705.502 43.536C705.022 44.096 704.43 44.528 703.726 44.832C703.038 45.136 702.262 45.288 701.398 45.288ZM701.398 43.632C702.47 43.632 703.334 43.312 703.99 42.672C704.646 42.032 704.974 41.04 704.974 39.696V37.92C704.974 36.576 704.646 35.584 703.99 34.944C703.334 34.304 702.47 33.984 701.398 33.984C700.326 33.984 699.462 34.304 698.806 34.944C698.15 35.584 697.822 36.576 697.822 37.92V39.696C697.822 41.04 698.15 42.032 698.806 42.672C699.462 43.312 700.326 43.632 701.398 43.632ZM711.181 45V32.616H713.101V34.632H713.197C713.325 34.328 713.485 34.04 713.677 33.768C713.869 33.48 714.101 33.232 714.373 33.024C714.661 32.816 714.997 32.648 715.381 32.52C715.765 32.392 716.213 32.328 716.725 32.328C718.021 32.328 719.061 32.744 719.845 33.576C720.629 34.392 721.021 35.552 721.021 37.056V45H719.101V37.392C719.101 36.256 718.853 35.416 718.357 34.872C717.861 34.312 717.133 34.032 716.173 34.032C715.789 34.032 715.413 34.08 715.045 34.176C714.677 34.272 714.349 34.416 714.061 34.608C713.773 34.8 713.541 35.048 713.365 35.352C713.189 35.656 713.101 36.008 713.101 36.408V45H711.181ZM731.259 45C730.315 45 729.619 44.736 729.171 44.208C728.739 43.68 728.523 43 728.523 42.168V34.248H724.395V32.616H727.467C727.883 32.616 728.171 32.536 728.331 32.376C728.507 32.2 728.595 31.904 728.595 31.488V28.248H730.443V32.616H736.083V34.248H730.443V43.368H736.083V45H731.259ZM739.938 43.368H743.562V34.248H739.938V32.616H745.482V35.736H745.602C745.858 34.76 746.338 34 747.042 33.456C747.762 32.896 748.674 32.616 749.778 32.616H751.506V34.536H749.178C748.074 34.536 747.178 34.856 746.49 35.496C745.818 36.136 745.482 36.976 745.482 38.016V43.368H750.282V45H739.938V43.368ZM760.689 29.88C760.129 29.88 759.737 29.768 759.513 29.544C759.289 29.304 759.177 29.008 759.177 28.656V28.272C759.177 27.92 759.289 27.632 759.513 27.408C759.737 27.168 760.129 27.048 760.689 27.048C761.249 27.048 761.641 27.168 761.865 27.408C762.089 27.632 762.201 27.92 762.201 28.272V28.656C762.201 29.008 762.089 29.304 761.865 29.544C761.641 29.768 761.249 29.88 760.689 29.88ZM755.265 43.368H759.729V34.248H755.265V32.616H761.649V43.368H765.825V45H755.265V43.368ZM769.631 27.24H771.551V34.632H771.647C772.447 33.096 773.719 32.328 775.463 32.328C776.983 32.328 778.167 32.896 779.015 34.032C779.879 35.168 780.311 36.76 780.311 38.808C780.311 40.856 779.879 42.448 779.015 43.584C778.167 44.72 776.983 45.288 775.463 45.288C773.719 45.288 772.447 44.52 771.647 42.984H771.551V45H769.631V27.24ZM774.719 43.584C775.839 43.584 776.703 43.248 777.311 42.576C777.935 41.888 778.247 40.984 778.247 39.864V37.752C778.247 36.632 777.935 35.736 777.311 35.064C776.703 34.376 775.839 34.032 774.719 34.032C774.287 34.032 773.879 34.088 773.495 34.2C773.111 34.312 772.775 34.48 772.487 34.704C772.199 34.912 771.967 35.176 771.791 35.496C771.631 35.8 771.551 36.16 771.551 36.576V41.04C771.551 41.456 771.631 41.824 771.791 42.144C771.967 42.448 772.199 42.712 772.487 42.936C772.775 43.144 773.111 43.304 773.495 43.416C773.879 43.528 774.287 43.584 774.719 43.584ZM792.11 42.984H792.014C791.886 43.288 791.726 43.584 791.534 43.872C791.342 44.144 791.102 44.384 790.814 44.592C790.542 44.8 790.214 44.968 789.83 45.096C789.446 45.224 788.998 45.288 788.486 45.288C787.19 45.288 786.15 44.88 785.366 44.064C784.582 43.232 784.19 42.064 784.19 40.56V32.616H786.11V40.224C786.11 41.36 786.358 42.208 786.854 42.768C787.35 43.312 788.078 43.584 789.038 43.584C789.422 43.584 789.798 43.536 790.166 43.44C790.534 43.344 790.862 43.2 791.15 43.008C791.438 42.816 791.67 42.576 791.846 42.288C792.022 41.984 792.11 41.624 792.11 41.208V32.616H794.03V45H792.11V42.984ZM804.412 45C803.468 45 802.772 44.736 802.324 44.208C801.892 43.68 801.676 43 801.676 42.168V34.248H797.548V32.616H800.62C801.036 32.616 801.324 32.536 801.484 32.376C801.66 32.2 801.748 31.904 801.748 31.488V28.248H803.596V32.616H809.236V34.248H803.596V43.368H809.236V45H804.412ZM818.659 45.288C817.763 45.288 816.955 45.136 816.235 44.832C815.531 44.528 814.923 44.096 814.411 43.536C813.915 42.96 813.531 42.28 813.259 41.496C812.987 40.696 812.851 39.808 812.851 38.832C812.851 37.84 812.987 36.944 813.259 36.144C813.547 35.344 813.939 34.664 814.435 34.104C814.931 33.528 815.523 33.088 816.211 32.784C816.915 32.48 817.691 32.328 818.539 32.328C819.371 32.328 820.123 32.48 820.795 32.784C821.483 33.088 822.067 33.512 822.547 34.056C823.027 34.584 823.395 35.216 823.651 35.952C823.907 36.688 824.035 37.496 824.035 38.376V39.288H814.867V39.864C814.867 40.408 814.955 40.912 815.131 41.376C815.307 41.84 815.555 42.24 815.875 42.576C816.211 42.912 816.611 43.176 817.075 43.368C817.555 43.544 818.083 43.632 818.659 43.632C819.491 43.632 820.211 43.44 820.819 43.056C821.427 42.672 821.891 42.144 822.211 41.472L823.627 42.432C823.259 43.264 822.643 43.952 821.779 44.496C820.931 45.024 819.891 45.288 818.659 45.288ZM818.539 33.912C818.011 33.912 817.523 34.008 817.075 34.2C816.627 34.392 816.235 34.656 815.899 34.992C815.579 35.328 815.323 35.728 815.131 36.192C814.955 36.64 814.867 37.136 814.867 37.68V37.848H821.971V37.584C821.971 37.04 821.883 36.544 821.707 36.096C821.547 35.648 821.315 35.264 821.011 34.944C820.723 34.608 820.363 34.352 819.931 34.176C819.515 34 819.051 33.912 818.539 33.912ZM848.304 45C847.36 45 846.664 44.736 846.216 44.208C845.784 43.68 845.568 43 845.568 42.168V34.248H841.44V32.616H844.512C844.928 32.616 845.216 32.536 845.376 32.376C845.552 32.2 845.64 31.904 845.64 31.488V28.248H847.488V32.616H853.128V34.248H847.488V43.368H853.128V45H848.304ZM857.487 27.24H859.407V34.632H859.503C859.631 34.328 859.791 34.04 859.983 33.768C860.175 33.48 860.407 33.232 860.679 33.024C860.967 32.816 861.303 32.648 861.687 32.52C862.071 32.392 862.519 32.328 863.031 32.328C864.327 32.328 865.367 32.744 866.151 33.576C866.935 34.392 867.327 35.552 867.327 37.056V45H865.407V37.392C865.407 36.256 865.159 35.416 864.663 34.872C864.167 34.312 863.439 34.032 862.479 34.032C862.095 34.032 861.719 34.08 861.351 34.176C860.983 34.272 860.655 34.416 860.367 34.608C860.079 34.8 859.847 35.048 859.671 35.352C859.495 35.656 859.407 36.008 859.407 36.408V45H857.487V27.24ZM871.614 43.368H875.238V34.248H871.614V32.616H877.158V35.736H877.278C877.534 34.76 878.014 34 878.718 33.456C879.438 32.896 880.35 32.616 881.454 32.616H883.182V34.536H880.854C879.75 34.536 878.854 34.856 878.166 35.496C877.494 36.136 877.158 36.976 877.158 38.016V43.368H881.958V45H871.614V43.368ZM891.596 45.288C890.732 45.288 889.948 45.136 889.244 44.832C888.556 44.528 887.964 44.096 887.468 43.536C886.988 42.96 886.62 42.28 886.364 41.496C886.108 40.696 885.98 39.8 885.98 38.808C885.98 37.832 886.108 36.944 886.364 36.144C886.62 35.344 886.988 34.664 887.468 34.104C887.964 33.528 888.556 33.088 889.244 32.784C889.948 32.48 890.732 32.328 891.596 32.328C892.46 32.328 893.236 32.48 893.924 32.784C894.628 33.088 895.22 33.528 895.7 34.104C896.196 34.664 896.572 35.344 896.828 36.144C897.084 36.944 897.212 37.832 897.212 38.808C897.212 39.8 897.084 40.696 896.828 41.496C896.572 42.28 896.196 42.96 895.7 43.536C895.22 44.096 894.628 44.528 893.924 44.832C893.236 45.136 892.46 45.288 891.596 45.288ZM891.596 43.632C892.668 43.632 893.532 43.312 894.188 42.672C894.844 42.032 895.172 41.04 895.172 39.696V37.92C895.172 36.576 894.844 35.584 894.188 34.944C893.532 34.304 892.668 33.984 891.596 33.984C890.524 33.984 889.66 34.304 889.004 34.944C888.348 35.584 888.02 36.576 888.02 37.92V39.696C888.02 41.04 888.348 42.032 889.004 42.672C889.66 43.312 890.524 43.632 891.596 43.632ZM909.155 42.984H909.059C908.931 43.288 908.771 43.584 908.579 43.872C908.387 44.144 908.147 44.384 907.859 44.592C907.587 44.8 907.259 44.968 906.875 45.096C906.491 45.224 906.043 45.288 905.531 45.288C904.235 45.288 903.195 44.88 902.411 44.064C901.627 43.232 901.235 42.064 901.235 40.56V32.616H903.155V40.224C903.155 41.36 903.403 42.208 903.899 42.768C904.395 43.312 905.123 43.584 906.083 43.584C906.467 43.584 906.843 43.536 907.211 43.44C907.579 43.344 907.907 43.2 908.195 43.008C908.483 42.816 908.715 42.576 908.891 42.288C909.067 41.984 909.155 41.624 909.155 41.208V32.616H911.075V45H909.155V42.984ZM927.122 46.416C927.122 47.664 926.602 48.584 925.562 49.176C924.522 49.784 922.962 50.088 920.882 50.088C918.882 50.088 917.442 49.824 916.562 49.296C915.698 48.768 915.266 48.008 915.266 47.016C915.266 46.344 915.442 45.824 915.794 45.456C916.146 45.088 916.642 44.816 917.282 44.64V44.352C916.93 44.176 916.658 43.952 916.466 43.68C916.274 43.408 916.178 43.064 916.178 42.648C916.178 42.008 916.386 41.528 916.802 41.208C917.234 40.888 917.77 40.648 918.41 40.488V40.392C917.642 40.056 917.042 39.56 916.61 38.904C916.194 38.248 915.986 37.48 915.986 36.6C915.986 35.976 916.098 35.4 916.322 34.872C916.546 34.344 916.866 33.896 917.282 33.528C917.714 33.144 918.226 32.848 918.818 32.64C919.41 32.432 920.066 32.328 920.786 32.328C921.714 32.328 922.53 32.496 923.234 32.832V32.616C923.234 32.136 923.346 31.736 923.57 31.416C923.794 31.096 924.178 30.936 924.722 30.936H927.002V32.616H924.218V33.456C924.666 33.84 925.01 34.296 925.25 34.824C925.49 35.352 925.61 35.944 925.61 36.6C925.61 37.224 925.49 37.8 925.25 38.328C925.026 38.856 924.706 39.312 924.29 39.696C923.874 40.064 923.362 40.352 922.754 40.56C922.162 40.768 921.506 40.872 920.786 40.872C920.578 40.872 920.378 40.864 920.186 40.848C919.994 40.832 919.802 40.808 919.61 40.776C919.418 40.808 919.218 40.864 919.01 40.944C918.802 41.008 918.61 41.104 918.434 41.232C918.258 41.344 918.114 41.48 918.002 41.64C917.89 41.8 917.834 41.984 917.834 42.192C917.834 42.56 918.018 42.808 918.386 42.936C918.754 43.048 919.234 43.104 919.826 43.104H922.562C924.162 43.104 925.322 43.408 926.042 44.016C926.762 44.608 927.122 45.408 927.122 46.416ZM925.322 46.512C925.322 46.016 925.122 45.616 924.722 45.312C924.322 45.024 923.626 44.88 922.634 44.88H918.338C917.506 45.216 917.09 45.776 917.09 46.56C917.09 47.104 917.306 47.568 917.738 47.952C918.17 48.352 918.89 48.552 919.898 48.552H921.77C922.89 48.552 923.762 48.376 924.386 48.024C925.01 47.688 925.322 47.184 925.322 46.512ZM920.786 39.384C921.746 39.384 922.45 39.16 922.898 38.712C923.362 38.264 923.594 37.672 923.594 36.936V36.24C923.594 35.504 923.362 34.92 922.898 34.488C922.45 34.04 921.746 33.816 920.786 33.816C919.826 33.816 919.122 34.04 918.674 34.488C918.226 34.92 918.002 35.504 918.002 36.24V36.936C918.002 37.672 918.226 38.264 918.674 38.712C919.122 39.16 919.826 39.384 920.786 39.384ZM930.64 27.24H932.56V34.632H932.656C932.784 34.328 932.944 34.04 933.136 33.768C933.328 33.48 933.56 33.232 933.832 33.024C934.12 32.816 934.456 32.648 934.84 32.52C935.224 32.392 935.672 32.328 936.184 32.328C937.48 32.328 938.52 32.744 939.304 33.576C940.088 34.392 940.48 35.552 940.48 37.056V45H938.56V37.392C938.56 36.256 938.312 35.416 937.816 34.872C937.32 34.312 936.592 34.032 935.632 34.032C935.248 34.032 934.872 34.08 934.504 34.176C934.136 34.272 933.808 34.416 933.52 34.608C933.232 34.8 933 35.048 932.824 35.352C932.648 35.656 932.56 36.008 932.56 36.408V45H930.64V27.24ZM966.981 42.744H966.813C966.493 43.496 966.045 44.112 965.469 44.592C964.909 45.056 964.133 45.288 963.141 45.288C962.453 45.288 961.821 45.16 961.245 44.904C960.685 44.648 960.197 44.256 959.781 43.728C959.381 43.2 959.061 42.528 958.821 41.712C958.597 40.896 958.485 39.928 958.485 38.808C958.485 37.688 958.597 36.72 958.821 35.904C959.061 35.088 959.381 34.416 959.781 33.888C960.197 33.36 960.685 32.968 961.245 32.712C961.821 32.456 962.453 32.328 963.141 32.328C963.637 32.328 964.077 32.392 964.461 32.52C964.845 32.648 965.181 32.824 965.469 33.048C965.773 33.272 966.029 33.544 966.237 33.864C966.461 34.168 966.653 34.504 966.813 34.872H966.981V27.24H970.533V45H966.981V42.744ZM964.677 42.528C965.301 42.528 965.837 42.376 966.285 42.072C966.749 41.768 966.981 41.288 966.981 40.632V36.984C966.981 36.328 966.749 35.848 966.285 35.544C965.837 35.24 965.301 35.088 964.677 35.088C963.877 35.088 963.261 35.336 962.829 35.832C962.397 36.312 962.181 36.984 962.181 37.848V39.768C962.181 40.632 962.397 41.312 962.829 41.808C963.261 42.288 963.877 42.528 964.677 42.528ZM979.716 45.288C977.636 45.288 976.06 44.712 974.988 43.56C973.916 42.408 973.38 40.84 973.38 38.856C973.38 37.848 973.516 36.944 973.788 36.144C974.076 35.328 974.476 34.64 974.988 34.08C975.516 33.504 976.148 33.072 976.884 32.784C977.636 32.48 978.476 32.328 979.404 32.328C980.332 32.328 981.164 32.48 981.9 32.784C982.636 33.072 983.26 33.488 983.772 34.032C984.284 34.576 984.676 35.24 984.948 36.024C985.236 36.792 985.38 37.656 985.38 38.616V39.672H976.908V39.888C976.908 40.688 977.156 41.336 977.652 41.832C978.148 42.312 978.876 42.552 979.836 42.552C980.572 42.552 981.204 42.416 981.732 42.144C982.26 41.856 982.716 41.48 983.1 41.016L985.02 43.104C984.54 43.696 983.868 44.208 983.004 44.64C982.14 45.072 981.044 45.288 979.716 45.288ZM979.428 34.872C978.66 34.872 978.044 35.112 977.58 35.592C977.132 36.056 976.908 36.688 976.908 37.488V37.68H981.9V37.488C981.9 36.672 981.676 36.032 981.228 35.568C980.796 35.104 980.196 34.872 979.428 34.872ZM993.867 45.288C992.491 45.288 991.291 45.08 990.267 44.664C989.259 44.248 988.499 43.68 987.987 42.96L989.979 41.112C990.459 41.64 991.019 42.056 991.659 42.36C992.315 42.648 993.059 42.792 993.891 42.792C994.595 42.792 995.147 42.688 995.547 42.48C995.947 42.256 996.147 41.92 996.147 41.472C996.147 41.12 996.011 40.88 995.739 40.752C995.467 40.608 995.091 40.496 994.611 40.416L992.619 40.104C992.059 40.024 991.539 39.904 991.059 39.744C990.579 39.568 990.163 39.336 989.811 39.048C989.459 38.76 989.179 38.408 988.971 37.992C988.763 37.576 988.659 37.072 988.659 36.48C988.659 35.184 989.155 34.168 990.147 33.432C991.139 32.696 992.531 32.328 994.323 32.328C995.539 32.328 996.571 32.496 997.419 32.832C998.283 33.152 998.971 33.616 999.483 34.224L997.707 36.24C997.339 35.84 996.867 35.504 996.291 35.232C995.715 34.96 995.019 34.824 994.203 34.824C992.827 34.824 992.139 35.24 992.139 36.072C992.139 36.44 992.275 36.696 992.547 36.84C992.819 36.968 993.195 37.072 993.675 37.152L995.643 37.464C996.203 37.544 996.723 37.672 997.203 37.848C997.683 38.008 998.099 38.232 998.451 38.52C998.819 38.808 999.107 39.16 999.315 39.576C999.523 39.992 999.627 40.496 999.627 41.088C999.627 42.384 999.123 43.408 998.115 44.16C997.123 44.912 995.707 45.288 993.867 45.288ZM1009.41 31.032C1008.61 31.032 1008.05 30.872 1007.73 30.552C1007.43 30.216 1007.27 29.816 1007.27 29.352V28.656C1007.27 28.176 1007.43 27.776 1007.73 27.456C1008.05 27.136 1008.61 26.976 1009.41 26.976C1010.21 26.976 1010.76 27.136 1011.07 27.456C1011.39 27.776 1011.55 28.176 1011.55 28.656V29.352C1011.55 29.816 1011.39 30.216 1011.07 30.552C1010.76 30.872 1010.21 31.032 1009.41 31.032ZM1003.7 42.24H1007.63V35.376H1003.7V32.616H1011.19V42.24H1014.83V45H1003.7V42.24ZM1030.06 46.248C1030.06 47.56 1029.51 48.528 1028.41 49.152C1027.3 49.776 1025.57 50.088 1023.2 50.088C1022.02 50.088 1021.04 50.016 1020.27 49.872C1019.5 49.744 1018.89 49.552 1018.42 49.296C1017.98 49.04 1017.66 48.736 1017.46 48.384C1017.29 48.032 1017.2 47.648 1017.2 47.232C1017.2 46.528 1017.41 45.992 1017.82 45.624C1018.24 45.272 1018.82 45 1019.58 44.808V44.664C1019.05 44.504 1018.62 44.28 1018.3 43.992C1018 43.688 1017.85 43.264 1017.85 42.72C1017.85 42.112 1018.05 41.664 1018.45 41.376C1018.86 41.088 1019.41 40.864 1020.08 40.704V40.56C1019.34 40.208 1018.77 39.712 1018.35 39.072C1017.95 38.432 1017.75 37.656 1017.75 36.744C1017.75 36.024 1017.88 35.392 1018.14 34.848C1018.39 34.288 1018.75 33.824 1019.22 33.456C1019.7 33.088 1020.26 32.808 1020.92 32.616C1021.58 32.424 1022.31 32.328 1023.13 32.328C1023.91 32.328 1024.64 32.416 1025.31 32.592V31.92C1025.31 31.44 1025.48 31.04 1025.82 30.72C1026.15 30.4 1026.62 30.24 1027.21 30.24H1029.39V32.832H1026.42V33.048C1027.09 33.4 1027.61 33.888 1027.98 34.512C1028.36 35.12 1028.55 35.864 1028.55 36.744C1028.55 37.464 1028.42 38.096 1028.17 38.64C1027.91 39.184 1027.54 39.648 1027.06 40.032C1026.58 40.4 1026.01 40.68 1025.34 40.872C1024.68 41.064 1023.94 41.16 1023.13 41.16C1022.76 41.16 1022.41 41.144 1022.07 41.112C1021.74 41.064 1021.42 41 1021.11 40.92C1020.94 41.016 1020.78 41.136 1020.66 41.28C1020.54 41.424 1020.49 41.608 1020.49 41.832C1020.49 42.024 1020.54 42.176 1020.63 42.288C1020.73 42.4 1020.86 42.488 1021.02 42.552C1021.19 42.6 1021.39 42.632 1021.62 42.648C1021.84 42.664 1022.07 42.672 1022.31 42.672H1025.14C1026.02 42.672 1026.78 42.76 1027.4 42.936C1028.02 43.112 1028.54 43.36 1028.94 43.68C1029.34 44 1029.62 44.376 1029.8 44.808C1029.98 45.24 1030.06 45.72 1030.06 46.248ZM1026.7 46.512C1026.7 46.192 1026.58 45.936 1026.32 45.744C1026.06 45.568 1025.58 45.48 1024.86 45.48H1020.61C1020.29 45.752 1020.13 46.088 1020.13 46.488C1020.13 46.872 1020.29 47.184 1020.61 47.424C1020.94 47.68 1021.5 47.808 1022.29 47.808H1024.38C1025.19 47.808 1025.78 47.696 1026.15 47.472C1026.52 47.248 1026.7 46.928 1026.7 46.512ZM1023.13 38.904C1023.85 38.904 1024.37 38.728 1024.69 38.376C1025.02 38.024 1025.19 37.576 1025.19 37.032V36.456C1025.19 35.912 1025.02 35.464 1024.69 35.112C1024.37 34.76 1023.85 34.584 1023.13 34.584C1022.42 34.584 1021.91 34.76 1021.59 35.112C1021.27 35.464 1021.11 35.912 1021.11 36.456V37.032C1021.11 37.576 1021.27 38.024 1021.59 38.376C1021.91 38.728 1022.42 38.904 1023.13 38.904ZM1032.26 45V32.616H1035.81V34.872H1035.96C1036.1 34.52 1036.28 34.192 1036.49 33.888C1036.69 33.584 1036.94 33.32 1037.23 33.096C1037.53 32.856 1037.88 32.672 1038.26 32.544C1038.66 32.4 1039.11 32.328 1039.61 32.328C1040.2 32.328 1040.74 32.432 1041.24 32.64C1041.73 32.832 1042.16 33.128 1042.51 33.528C1042.86 33.928 1043.13 34.416 1043.33 34.992C1043.53 35.568 1043.64 36.232 1043.64 36.984V45H1040.09V37.464C1040.09 35.864 1039.39 35.064 1038 35.064C1037.73 35.064 1037.45 35.104 1037.18 35.184C1036.93 35.248 1036.69 35.36 1036.49 35.52C1036.28 35.664 1036.11 35.848 1035.98 36.072C1035.87 36.296 1035.81 36.56 1035.81 36.864V45H1032.26ZM1071.84 45C1071.09 45 1070.56 44.808 1070.24 44.424C1069.92 44.04 1069.72 43.56 1069.64 42.984H1069.52C1069.24 43.704 1068.8 44.272 1068.2 44.688C1067.6 45.088 1066.8 45.288 1065.8 45.288C1064.5 45.288 1063.47 44.952 1062.7 44.28C1061.93 43.608 1061.55 42.688 1061.55 41.52C1061.55 40.368 1061.96 39.48 1062.8 38.856C1063.64 38.232 1065 37.92 1066.88 37.92H1069.52V36.696C1069.52 35.784 1069.26 35.104 1068.75 34.656C1068.24 34.192 1067.51 33.96 1066.56 33.96C1065.73 33.96 1065.05 34.128 1064.52 34.464C1064 34.784 1063.57 35.224 1063.25 35.784L1061.96 34.824C1062.12 34.504 1062.33 34.192 1062.6 33.888C1062.88 33.584 1063.21 33.32 1063.61 33.096C1064.01 32.856 1064.47 32.672 1064.98 32.544C1065.49 32.4 1066.06 32.328 1066.68 32.328C1068.14 32.328 1069.29 32.696 1070.14 33.432C1071 34.168 1071.44 35.192 1071.44 36.504V43.32H1073.16V45H1071.84ZM1066.13 43.68C1066.63 43.68 1067.08 43.624 1067.48 43.512C1067.89 43.384 1068.25 43.224 1068.56 43.032C1068.86 42.824 1069.09 42.584 1069.25 42.312C1069.43 42.024 1069.52 41.72 1069.52 41.4V39.36H1066.88C1065.72 39.36 1064.88 39.52 1064.36 39.84C1063.83 40.16 1063.56 40.624 1063.56 41.232V41.736C1063.56 42.376 1063.79 42.864 1064.24 43.2C1064.7 43.52 1065.33 43.68 1066.13 43.68ZM1076.95 45V32.616H1078.87V34.632H1078.96C1079.09 34.328 1079.25 34.04 1079.44 33.768C1079.63 33.48 1079.87 33.232 1080.14 33.024C1080.43 32.816 1080.76 32.648 1081.15 32.52C1081.53 32.392 1081.98 32.328 1082.49 32.328C1083.79 32.328 1084.83 32.744 1085.61 33.576C1086.39 34.392 1086.79 35.552 1086.79 37.056V45H1084.87V37.392C1084.87 36.256 1084.62 35.416 1084.12 34.872C1083.63 34.312 1082.9 34.032 1081.94 34.032C1081.55 34.032 1081.18 34.08 1080.81 34.176C1080.44 34.272 1080.11 34.416 1079.83 34.608C1079.54 34.8 1079.31 35.048 1079.13 35.352C1078.95 35.656 1078.87 36.008 1078.87 36.408V45H1076.95ZM1099.42 42.984H1099.33C1098.53 44.52 1097.26 45.288 1095.51 45.288C1093.99 45.288 1092.8 44.72 1091.94 43.584C1091.09 42.448 1090.66 40.856 1090.66 38.808C1090.66 36.76 1091.09 35.168 1091.94 34.032C1092.8 32.896 1093.99 32.328 1095.51 32.328C1097.26 32.328 1098.53 33.096 1099.33 34.632H1099.42V27.24H1101.34V45H1099.42V42.984ZM1096.26 43.584C1096.69 43.584 1097.1 43.528 1097.48 43.416C1097.86 43.304 1098.2 43.144 1098.49 42.936C1098.78 42.712 1099 42.448 1099.16 42.144C1099.34 41.824 1099.42 41.456 1099.42 41.04V36.576C1099.42 36.16 1099.34 35.8 1099.16 35.496C1099 35.176 1098.78 34.912 1098.49 34.704C1098.2 34.48 1097.86 34.312 1097.48 34.2C1097.1 34.088 1096.69 34.032 1096.26 34.032C1095.14 34.032 1094.26 34.376 1093.64 35.064C1093.03 35.736 1092.73 36.632 1092.73 37.752V39.864C1092.73 40.984 1093.03 41.888 1093.64 42.576C1094.26 43.248 1095.14 43.584 1096.26 43.584ZM1126.19 45.288C1125.21 45.288 1124.33 45.144 1123.55 44.856C1122.78 44.552 1122.13 44.12 1121.58 43.56C1121.05 43 1120.65 42.32 1120.36 41.52C1120.07 40.72 1119.93 39.816 1119.93 38.808C1119.93 37.8 1120.07 36.896 1120.36 36.096C1120.65 35.296 1121.05 34.616 1121.58 34.056C1122.13 33.496 1122.78 33.072 1123.55 32.784C1124.33 32.48 1125.21 32.328 1126.17 32.328C1127.53 32.328 1128.61 32.608 1129.43 33.168C1130.26 33.712 1130.89 34.44 1131.33 35.352L1128.59 36.84C1128.37 36.36 1128.07 35.96 1127.7 35.64C1127.35 35.32 1126.84 35.16 1126.17 35.16C1125.35 35.16 1124.72 35.4 1124.27 35.88C1123.84 36.344 1123.62 36.984 1123.62 37.8V39.816C1123.62 40.632 1123.84 41.28 1124.27 41.76C1124.72 42.224 1125.37 42.456 1126.21 42.456C1126.9 42.456 1127.44 42.296 1127.82 41.976C1128.22 41.656 1128.56 41.24 1128.83 40.728L1131.52 42.264C1131.07 43.176 1130.41 43.912 1129.55 44.472C1128.7 45.016 1127.58 45.288 1126.19 45.288ZM1140.32 45.288C1139.36 45.288 1138.49 45.144 1137.72 44.856C1136.96 44.552 1136.3 44.12 1135.76 43.56C1135.23 43 1134.82 42.32 1134.53 41.52C1134.24 40.72 1134.1 39.816 1134.1 38.808C1134.1 37.8 1134.24 36.896 1134.53 36.096C1134.82 35.296 1135.23 34.616 1135.76 34.056C1136.3 33.496 1136.96 33.072 1137.72 32.784C1138.49 32.48 1139.36 32.328 1140.32 32.328C1141.28 32.328 1142.14 32.48 1142.91 32.784C1143.68 33.072 1144.32 33.496 1144.85 34.056C1145.4 34.616 1145.81 35.296 1146.1 36.096C1146.39 36.896 1146.53 37.8 1146.53 38.808C1146.53 39.816 1146.39 40.72 1146.1 41.52C1145.81 42.32 1145.4 43 1144.85 43.56C1144.32 44.12 1143.68 44.552 1142.91 44.856C1142.14 45.144 1141.28 45.288 1140.32 45.288ZM1140.32 42.648C1141.12 42.648 1141.74 42.4 1142.19 41.904C1142.64 41.408 1142.86 40.704 1142.86 39.792V37.824C1142.86 36.912 1142.64 36.208 1142.19 35.712C1141.74 35.216 1141.12 34.968 1140.32 34.968C1139.52 34.968 1138.89 35.216 1138.44 35.712C1138 36.208 1137.77 36.912 1137.77 37.824V39.792C1137.77 40.704 1138 41.408 1138.44 41.904C1138.89 42.4 1139.52 42.648 1140.32 42.648ZM1157.18 42.744H1157.01C1156.69 43.496 1156.24 44.112 1155.67 44.592C1155.11 45.056 1154.33 45.288 1153.34 45.288C1152.65 45.288 1152.02 45.16 1151.44 44.904C1150.88 44.648 1150.4 44.256 1149.98 43.728C1149.58 43.2 1149.26 42.528 1149.02 41.712C1148.8 40.896 1148.68 39.928 1148.68 38.808C1148.68 37.688 1148.8 36.72 1149.02 35.904C1149.26 35.088 1149.58 34.416 1149.98 33.888C1150.4 33.36 1150.88 32.968 1151.44 32.712C1152.02 32.456 1152.65 32.328 1153.34 32.328C1153.84 32.328 1154.28 32.392 1154.66 32.52C1155.04 32.648 1155.38 32.824 1155.67 33.048C1155.97 33.272 1156.23 33.544 1156.44 33.864C1156.66 34.168 1156.85 34.504 1157.01 34.872H1157.18V27.24H1160.73V45H1157.18V42.744ZM1154.88 42.528C1155.5 42.528 1156.04 42.376 1156.48 42.072C1156.95 41.768 1157.18 41.288 1157.18 40.632V36.984C1157.18 36.328 1156.95 35.848 1156.48 35.544C1156.04 35.24 1155.5 35.088 1154.88 35.088C1154.08 35.088 1153.46 35.336 1153.03 35.832C1152.6 36.312 1152.38 36.984 1152.38 37.848V39.768C1152.38 40.632 1152.6 41.312 1153.03 41.808C1153.46 42.288 1154.08 42.528 1154.88 42.528ZM1169.91 45.288C1167.83 45.288 1166.26 44.712 1165.19 43.56C1164.11 42.408 1163.58 40.84 1163.58 38.856C1163.58 37.848 1163.71 36.944 1163.99 36.144C1164.27 35.328 1164.67 34.64 1165.19 34.08C1165.71 33.504 1166.35 33.072 1167.08 32.784C1167.83 32.48 1168.67 32.328 1169.6 32.328C1170.53 32.328 1171.36 32.48 1172.1 32.784C1172.83 33.072 1173.46 33.488 1173.97 34.032C1174.48 34.576 1174.87 35.24 1175.15 36.024C1175.43 36.792 1175.58 37.656 1175.58 38.616V39.672H1167.11V39.888C1167.11 40.688 1167.35 41.336 1167.85 41.832C1168.35 42.312 1169.07 42.552 1170.03 42.552C1170.77 42.552 1171.4 42.416 1171.93 42.144C1172.46 41.856 1172.91 41.48 1173.3 41.016L1175.22 43.104C1174.74 43.696 1174.07 44.208 1173.2 44.64C1172.34 45.072 1171.24 45.288 1169.91 45.288ZM1169.63 34.872C1168.86 34.872 1168.24 35.112 1167.78 35.592C1167.33 36.056 1167.11 36.688 1167.11 37.488V37.68H1172.1V37.488C1172.1 36.672 1171.87 36.032 1171.43 35.568C1170.99 35.104 1170.39 34.872 1169.63 34.872Z" fill="#EEEEEE"/>
</svg>
