<svg width="1680" height="240" viewBox="0 0 1680 240" fill="none" xmlns="http://www.w3.org/2000/svg">

<defs>
    <style>
      .blink {
        animation: blink 1s infinite;
      }

      @keyframes blink {
        0%, 100% {
          opacity: 1;
        }
        50% {
          opacity: 0;
        }
      }
    </style>
  </defs>

  
<path d="M130.072 148.552H129.592C129.08 149.832 128.408 151.08 127.576 152.296C126.808 153.448 125.848 154.472 124.696 155.368C123.544 156.2 122.2 156.872 120.664 157.384C119.128 157.896 117.336 158.152 115.288 158.152C110.296 158.152 106.264 156.52 103.192 153.256C100.12 149.992 98.584 145.352 98.584 139.336V107.464H109.048V137.8C109.048 145.672 112.472 149.608 119.32 149.608C120.664 149.608 121.976 149.448 123.256 149.128C124.536 148.744 125.688 148.2 126.712 147.496C127.736 146.792 128.536 145.928 129.112 144.904C129.752 143.816 130.072 142.536 130.072 141.064V107.464H140.536V157H130.072V148.552ZM178.419 158.152C173.043 158.152 168.402 157.288 164.498 155.56C160.658 153.832 157.554 151.528 155.186 148.648L161.618 142.888C163.794 145.256 166.227 147.08 168.914 148.36C171.666 149.576 174.898 150.184 178.61 150.184C182.002 150.184 184.722 149.608 186.771 148.456C188.883 147.304 189.939 145.512 189.939 143.08C189.939 142.056 189.747 141.192 189.363 140.488C188.979 139.784 188.435 139.208 187.731 138.76C187.027 138.312 186.195 137.96 185.234 137.704C184.339 137.448 183.378 137.256 182.354 137.128L174.483 135.88C172.562 135.624 170.61 135.208 168.627 134.632C166.643 134.056 164.851 133.256 163.25 132.232C161.714 131.144 160.434 129.768 159.41 128.104C158.45 126.44 157.97 124.328 157.97 121.768C157.97 116.712 159.89 112.872 163.73 110.248C167.634 107.624 172.755 106.312 179.091 106.312C183.699 106.312 187.667 107.016 190.995 108.424C194.387 109.768 197.203 111.656 199.443 114.088L193.587 120.232C192.307 118.76 190.483 117.416 188.115 116.2C185.747 114.92 182.611 114.28 178.707 114.28C171.731 114.28 168.242 116.488 168.242 120.904C168.242 123.016 168.978 124.488 170.451 125.32C171.987 126.088 173.779 126.6 175.827 126.856L183.698 128.104C185.683 128.424 187.635 128.84 189.555 129.352C191.539 129.864 193.299 130.664 194.835 131.752C196.435 132.776 197.715 134.12 198.675 135.784C199.698 137.448 200.21 139.56 200.21 142.12C200.21 147.112 198.258 151.048 194.354 153.928C190.514 156.744 185.203 158.152 178.419 158.152ZM237.901 158.152C234.125 158.152 230.733 157.544 227.725 156.328C224.717 155.112 222.189 153.384 220.141 151.144C218.093 148.904 216.525 146.216 215.437 143.08C214.349 139.88 213.805 136.296 213.805 132.328C213.805 128.36 214.349 124.776 215.437 121.576C216.589 118.376 218.157 115.656 220.141 113.416C222.189 111.112 224.653 109.352 227.533 108.136C230.413 106.92 233.613 106.312 237.133 106.312C240.589 106.312 243.725 106.92 246.541 108.136C249.357 109.288 251.757 110.952 253.741 113.128C255.725 115.304 257.229 117.896 258.253 120.904C259.341 123.912 259.885 127.24 259.885 130.888V134.824H224.365V136.456C224.365 140.36 225.581 143.56 228.013 146.056C230.445 148.488 233.805 149.704 238.093 149.704C241.293 149.704 244.013 149.032 246.253 147.688C248.557 146.28 250.413 144.424 251.821 142.12L258.349 147.88C256.685 150.76 254.125 153.192 250.669 155.176C247.277 157.16 243.021 158.152 237.901 158.152ZM237.133 114.28C235.277 114.28 233.549 114.6 231.949 115.24C230.413 115.88 229.069 116.808 227.917 118.024C226.829 119.176 225.965 120.552 225.325 122.152C224.685 123.752 224.365 125.512 224.365 127.432V128.104H249.229V127.144C249.229 123.24 248.109 120.136 245.869 117.832C243.693 115.464 240.781 114.28 237.133 114.28ZM273.864 148.552H287.016V115.912H273.864V107.464H297.48V120.616H298.056C298.504 118.888 299.144 117.224 299.976 115.624C300.808 114.024 301.864 112.648 303.144 111.496C304.424 110.28 305.992 109.32 307.848 108.616C309.704 107.848 311.88 107.464 314.376 107.464H320.328V117.448H310.536C306.696 117.448 303.56 118.6 301.128 120.904C298.696 123.144 297.48 126.184 297.48 130.024V148.552H315.432V157H273.864V148.552ZM342.274 105.448H341.41V157H332.002V89.992H345.826L365.506 141.544H366.37V89.992H375.778V157H361.954L342.274 105.448ZM430.844 157C427.836 157 425.564 156.232 424.028 154.696C422.556 153.16 421.66 151.144 421.34 148.648H420.86C419.9 151.656 418.14 153.992 415.58 155.656C413.084 157.32 409.884 158.152 405.98 158.152C400.924 158.152 396.892 156.84 393.884 154.216C390.876 151.528 389.372 147.848 389.372 143.176C389.372 138.376 391.132 134.728 394.652 132.232C398.236 129.672 403.708 128.392 411.068 128.392H420.572V124.552C420.572 117.832 417.02 114.472 409.916 114.472C406.716 114.472 404.124 115.112 402.14 116.392C400.156 117.608 398.492 119.24 397.148 121.288L390.908 116.2C392.316 113.512 394.684 111.208 398.012 109.288C401.34 107.304 405.628 106.312 410.876 106.312C417.148 106.312 422.076 107.816 425.66 110.824C429.244 113.832 431.036 118.184 431.036 123.88V148.744H437.276V157H430.844ZM408.956 150.472C412.348 150.472 415.132 149.704 417.308 148.168C419.484 146.632 420.572 144.648 420.572 142.216V135.016H411.26C403.708 135.016 399.932 137.288 399.932 141.832V143.752C399.932 145.992 400.732 147.688 402.332 148.84C403.932 149.928 406.14 150.472 408.956 150.472ZM446.359 157V107.464H455.287V113.896H455.767C456.535 111.784 457.623 109.992 459.031 108.52C460.503 107.048 462.583 106.312 465.271 106.312C467.895 106.312 469.911 107.048 471.319 108.52C472.791 109.928 473.719 111.88 474.103 114.376H474.487C475.383 112.136 476.631 110.248 478.231 108.712C479.831 107.112 482.135 106.312 485.143 106.312C488.983 106.312 491.639 107.656 493.111 110.344C494.647 113.032 495.415 116.968 495.415 122.152V157H486.487V123.496C486.487 120.04 486.071 117.672 485.239 116.392C484.407 115.048 483.063 114.376 481.207 114.376C479.543 114.376 478.135 114.952 476.983 116.104C475.895 117.192 475.351 118.856 475.351 121.096V157H466.423V123.496C466.423 120.04 466.007 117.672 465.175 116.392C464.407 115.048 463.095 114.376 461.239 114.376C459.511 114.376 458.071 114.952 456.919 116.104C455.831 117.192 455.287 118.856 455.287 121.096V157H446.359ZM530.514 158.152C526.738 158.152 523.346 157.544 520.338 156.328C517.33 155.112 514.802 153.384 512.754 151.144C510.706 148.904 509.138 146.216 508.05 143.08C506.962 139.88 506.418 136.296 506.418 132.328C506.418 128.36 506.962 124.776 508.05 121.576C509.202 118.376 510.77 115.656 512.754 113.416C514.802 111.112 517.266 109.352 520.146 108.136C523.026 106.92 526.226 106.312 529.746 106.312C533.202 106.312 536.338 106.92 539.154 108.136C541.97 109.288 544.37 110.952 546.354 113.128C548.338 115.304 549.842 117.896 550.866 120.904C551.954 123.912 552.498 127.24 552.498 130.888V134.824H516.978V136.456C516.978 140.36 518.194 143.56 520.626 146.056C523.058 148.488 526.418 149.704 530.706 149.704C533.906 149.704 536.626 149.032 538.866 147.688C541.17 146.28 543.026 144.424 544.434 142.12L550.962 147.88C549.298 150.76 546.738 153.192 543.282 155.176C539.89 157.16 535.634 158.152 530.514 158.152ZM529.746 114.28C527.89 114.28 526.162 114.6 524.562 115.24C523.026 115.88 521.682 116.808 520.53 118.024C519.442 119.176 518.578 120.552 517.938 122.152C517.298 123.752 516.978 125.512 516.978 127.432V128.104H541.842V127.144C541.842 123.24 540.722 120.136 538.482 117.832C536.306 115.464 533.394 114.28 529.746 114.28ZM860.24 89.992H882.992C888.752 89.992 893.264 91.56 896.528 94.696C899.792 97.832 901.424 102.024 901.424 107.272C901.424 111.304 900.432 114.472 898.448 116.776C896.528 119.08 894.032 120.712 890.96 121.672V121.96C894.736 122.856 897.84 124.552 900.272 127.048C902.704 129.48 903.92 133.032 903.92 137.704C903.92 140.392 903.472 142.92 902.576 145.288C901.68 147.656 900.4 149.704 898.736 151.432C897.136 153.16 895.216 154.536 892.976 155.56C890.8 156.52 888.432 157 885.872 157H860.24V89.992ZM883.472 149.992C887.184 149.992 890.096 149.16 892.208 147.496C894.32 145.832 895.376 143.272 895.376 139.816V135.88C895.376 132.488 894.32 129.96 892.208 128.296C890.096 126.568 887.184 125.704 883.472 125.704H868.304V149.992H883.472ZM882.128 119.08C885.52 119.08 888.176 118.344 890.096 116.872C892.016 115.336 892.976 113.032 892.976 109.96V106.216C892.976 103.144 892.016 100.84 890.096 99.304C888.176 97.768 885.52 97 882.128 97H868.304V119.08H882.128ZM942.187 96.52C939.947 96.52 938.379 96.072 937.483 95.176C936.587 94.216 936.139 93.032 936.139 91.624V90.088C936.139 88.68 936.587 87.528 937.483 86.632C938.379 85.672 939.947 85.192 942.187 85.192C944.427 85.192 945.995 85.672 946.891 86.632C947.787 87.528 948.235 88.68 948.235 90.088V91.624C948.235 93.032 947.787 94.216 946.891 95.176C945.995 96.072 944.427 96.52 942.187 96.52ZM920.491 150.472H938.347V113.992H920.491V107.464H946.027V150.472H962.731V157H920.491V150.472ZM977.958 107.464H985.638V115.528H986.022C989.222 109.384 994.31 106.312 1001.29 106.312C1007.37 106.312 1012.1 108.584 1015.49 113.128C1018.95 117.672 1020.68 124.04 1020.68 132.232C1020.68 140.424 1018.95 146.792 1015.49 151.336C1012.1 155.88 1007.37 158.152 1001.29 158.152C994.31 158.152 989.222 155.08 986.022 148.936H985.638V176.2H977.958V107.464ZM998.31 151.336C1002.79 151.336 1006.25 149.992 1008.68 147.304C1011.17 144.552 1012.42 140.936 1012.42 136.456V128.008C1012.42 123.528 1011.17 119.944 1008.68 117.256C1006.25 114.504 1002.79 113.128 998.31 113.128C996.582 113.128 994.95 113.352 993.414 113.8C991.878 114.248 990.534 114.92 989.382 115.816C988.23 116.648 987.302 117.704 986.598 118.984C985.958 120.2 985.638 121.64 985.638 123.304V141.16C985.638 142.824 985.958 144.296 986.598 145.576C987.302 146.792 988.23 147.848 989.382 148.744C990.534 149.576 991.878 150.216 993.414 150.664C994.95 151.112 996.582 151.336 998.31 151.336ZM1067.87 148.936H1067.49C1066.98 150.152 1066.34 151.336 1065.57 152.488C1064.8 153.576 1063.84 154.536 1062.69 155.368C1061.6 156.2 1060.29 156.872 1058.75 157.384C1057.22 157.896 1055.42 158.152 1053.38 158.152C1048.19 158.152 1044.03 156.52 1040.9 153.256C1037.76 149.928 1036.19 145.256 1036.19 139.24V107.464H1043.87V137.896C1043.87 142.44 1044.86 145.832 1046.85 148.072C1048.83 150.248 1051.74 151.336 1055.58 151.336C1057.12 151.336 1058.62 151.144 1060.1 150.76C1061.57 150.376 1062.88 149.8 1064.03 149.032C1065.18 148.264 1066.11 147.304 1066.82 146.152C1067.52 144.936 1067.87 143.496 1067.87 141.832V107.464H1075.55V157H1067.87V148.936ZM1093.56 150.472H1110.84V92.488H1093.56V85.96H1118.52V150.472H1135.8V157H1093.56V150.472ZM1155.93 157V89.992H1163.99V149.992H1195.77V157H1155.93ZM1250.45 157C1247.44 157 1245.3 156.232 1244.02 154.696C1242.74 153.16 1241.94 151.24 1241.62 148.936H1241.14C1240.05 151.816 1238.29 154.088 1235.86 155.752C1233.49 157.352 1230.29 158.152 1226.26 158.152C1221.07 158.152 1216.94 156.808 1213.87 154.12C1210.8 151.432 1209.26 147.752 1209.26 143.08C1209.26 138.472 1210.93 134.92 1214.26 132.424C1217.65 129.928 1223.09 128.68 1230.58 128.68H1241.14V123.784C1241.14 120.136 1240.11 117.416 1238.06 115.624C1236.02 113.768 1233.1 112.84 1229.33 112.84C1226 112.84 1223.28 113.512 1221.17 114.856C1219.06 116.136 1217.36 117.896 1216.08 120.136L1210.9 116.296C1211.54 115.016 1212.4 113.768 1213.49 112.552C1214.58 111.336 1215.92 110.28 1217.52 109.384C1219.12 108.424 1220.94 107.688 1222.99 107.176C1225.04 106.6 1227.31 106.312 1229.81 106.312C1235.63 106.312 1240.24 107.784 1243.63 110.728C1247.09 113.672 1248.82 117.768 1248.82 123.016V150.28H1255.73V157H1250.45ZM1227.6 151.72C1229.58 151.72 1231.38 151.496 1232.98 151.048C1234.64 150.536 1236.08 149.896 1237.3 149.128C1238.51 148.296 1239.44 147.336 1240.08 146.248C1240.78 145.096 1241.14 143.88 1241.14 142.6V134.44H1230.58C1225.97 134.44 1222.61 135.08 1220.5 136.36C1218.38 137.64 1217.33 139.496 1217.33 141.928V143.944C1217.33 146.504 1218.22 148.456 1220.02 149.8C1221.87 151.08 1224.4 151.72 1227.6 151.72ZM1266.63 157V107.464H1273.74V113.224H1274.12C1274.89 111.304 1275.98 109.672 1277.39 108.328C1278.79 106.984 1280.87 106.312 1283.63 106.312C1286.51 106.312 1288.65 107.048 1290.06 108.52C1291.47 109.928 1292.33 111.784 1292.65 114.088H1292.94C1293.83 111.848 1295.11 109.992 1296.78 108.52C1298.44 107.048 1300.75 106.312 1303.69 106.312C1307.72 106.312 1310.41 107.72 1311.75 110.536C1313.16 113.352 1313.87 117.384 1313.87 122.632V157H1306.76V123.88C1306.76 119.656 1306.31 116.744 1305.42 115.144C1304.59 113.48 1303.02 112.648 1300.71 112.648C1298.67 112.648 1297 113.32 1295.72 114.664C1294.44 115.944 1293.8 117.928 1293.8 120.616V157H1286.7V123.88C1286.7 119.656 1286.25 116.744 1285.35 115.144C1284.52 113.48 1282.99 112.648 1280.75 112.648C1278.7 112.648 1277 113.32 1275.66 114.664C1274.38 115.944 1273.74 117.928 1273.74 120.616V157H1266.63ZM1349.35 158.152C1344.16 158.152 1339.68 157.288 1335.91 155.56C1332.2 153.768 1329.03 151.4 1326.4 148.456L1331.59 143.944C1333.96 146.44 1336.55 148.36 1339.36 149.704C1342.18 151.048 1345.57 151.72 1349.54 151.72C1353.38 151.72 1356.52 151.048 1358.95 149.704C1361.44 148.296 1362.69 146.12 1362.69 143.176C1362.69 141.896 1362.44 140.84 1361.92 140.008C1361.48 139.112 1360.84 138.408 1360 137.896C1359.17 137.384 1358.24 137 1357.22 136.744C1356.2 136.424 1355.11 136.168 1353.96 135.976L1346.18 134.824C1344.45 134.568 1342.56 134.216 1340.52 133.768C1338.53 133.32 1336.71 132.616 1335.04 131.656C1333.38 130.632 1331.97 129.288 1330.82 127.624C1329.73 125.96 1329.19 123.784 1329.19 121.096C1329.19 118.6 1329.67 116.456 1330.63 114.664C1331.65 112.808 1333.06 111.272 1334.85 110.056C1336.64 108.776 1338.76 107.848 1341.19 107.272C1343.62 106.632 1346.28 106.312 1349.16 106.312C1353.64 106.312 1357.51 107.016 1360.77 108.424C1364.1 109.832 1366.95 111.784 1369.32 114.28L1364.32 118.984C1363.75 118.28 1363.01 117.576 1362.12 116.872C1361.28 116.104 1360.23 115.432 1358.95 114.856C1357.73 114.216 1356.29 113.704 1354.63 113.32C1352.96 112.936 1351.04 112.744 1348.87 112.744C1344.96 112.744 1341.96 113.416 1339.84 114.76C1337.8 116.104 1336.77 118.056 1336.77 120.616C1336.77 121.896 1337 122.984 1337.44 123.88C1337.96 124.712 1338.63 125.384 1339.46 125.896C1340.29 126.408 1341.22 126.824 1342.24 127.144C1343.33 127.4 1344.42 127.624 1345.51 127.816L1353.28 128.968C1355.08 129.224 1356.96 129.576 1358.95 130.024C1360.93 130.472 1362.76 131.208 1364.42 132.232C1366.08 133.192 1367.46 134.504 1368.55 136.168C1369.7 137.832 1370.28 140.008 1370.28 142.696C1370.28 147.624 1368.36 151.432 1364.52 154.12C1360.74 156.808 1355.68 158.152 1349.35 158.152ZM1426.01 157C1423.01 157 1420.86 156.232 1419.58 154.696C1418.3 153.16 1417.5 151.24 1417.18 148.936H1416.7C1415.61 151.816 1413.85 154.088 1411.42 155.752C1409.05 157.352 1405.85 158.152 1401.82 158.152C1396.64 158.152 1392.51 156.808 1389.44 154.12C1386.37 151.432 1384.83 147.752 1384.83 143.08C1384.83 138.472 1386.49 134.92 1389.82 132.424C1393.21 129.928 1398.65 128.68 1406.14 128.68H1416.7V123.784C1416.7 120.136 1415.68 117.416 1413.63 115.624C1411.58 113.768 1408.67 112.84 1404.89 112.84C1401.57 112.84 1398.85 113.512 1396.73 114.856C1394.62 116.136 1392.93 117.896 1391.65 120.136L1386.46 116.296C1387.1 115.016 1387.97 113.768 1389.05 112.552C1390.14 111.336 1391.49 110.28 1393.09 109.384C1394.69 108.424 1396.51 107.688 1398.56 107.176C1400.61 106.6 1402.88 106.312 1405.37 106.312C1411.2 106.312 1415.81 107.784 1419.2 110.728C1422.65 113.672 1424.38 117.768 1424.38 123.016V150.28H1431.29V157H1426.01ZM1403.17 151.72C1405.15 151.72 1406.94 151.496 1408.54 151.048C1410.21 150.536 1411.65 149.896 1412.86 149.128C1414.08 148.296 1415.01 147.336 1415.65 146.248C1416.35 145.096 1416.7 143.88 1416.7 142.6V134.44H1406.14C1401.53 134.44 1398.17 135.08 1396.06 136.36C1393.95 137.64 1392.89 139.496 1392.89 141.928V143.944C1392.89 146.504 1393.79 148.456 1395.58 149.8C1397.44 151.08 1399.97 151.72 1403.17 151.72ZM1444.7 150.472H1461.98V92.488H1444.7V85.96H1469.66V150.472H1486.94V157H1444.7V150.472Z" fill="#005391"/>
<path d="M646.503 157.864C643.879 157.864 642.023 157.32 640.935 156.232C639.911 155.144 639.399 153.768 639.399 152.104V150.376C639.399 148.712 639.911 147.336 640.935 146.248C642.023 145.16 643.879 144.616 646.503 144.616C649.127 144.616 650.951 145.16 651.975 146.248C653.063 147.336 653.607 148.712 653.607 150.376V152.104C653.607 153.768 653.063 155.144 651.975 156.232C650.951 157.32 649.127 157.864 646.503 157.864ZM646.503 119.848C643.879 119.848 642.023 119.304 640.935 118.216C639.911 117.128 639.399 115.752 639.399 114.088V112.36C639.399 110.696 639.911 109.32 640.935 108.232C642.023 107.144 643.879 106.6 646.503 106.6C649.127 106.6 650.951 107.144 651.975 108.232C653.063 109.32 653.607 110.696 653.607 112.36V114.088C653.607 115.752 653.063 117.128 651.975 118.216C650.951 119.304 649.127 119.848 646.503 119.848ZM682.177 121.288V114.76H727.873V121.288H682.177ZM682.177 140.488V133.96H727.873V140.488H682.177ZM812.182 85.96H818.614L813.526 112.552H801.142L812.182 85.96ZM835.126 85.96H841.558L836.47 112.552H824.086L835.126 85.96ZM1511.19 85.96H1523.57L1512.53 112.552H1506.1L1511.19 85.96ZM1534.13 85.96H1546.52L1535.48 112.552H1529.04L1534.13 85.96Z" fill="#2383CB"/>
<rect x="1587" y="54" width="6" height="131" rx="3" fill="#959595" class="blink"/>
</svg>
