<svg width="1680" height="112" viewBox="0 0 1680 112" fill="none" xmlns="http://www.w3.org/2000/svg">
<defs>
   <style>

       @keyframes floatingAnimationUp {
      0%, 100% {
        transform: translateY(0);
      }
      50% {
        transform: translateY(-5px);
      }
    }
    @keyframes floatingAnimation {
      0%, 100% {
        transform: translateY(0);
      }
      50% {
        transform: translateY(10px);
      }
    }

    .floating-animation {
      animation: floatingAnimation 3s infinite cubic-bezier(1,.34,.2,.84);
      animation-delay: 1s;
    }
        .floating-animation-up {
      animation: floatingAnimationUp 3s infinite cubic-bezier(1,.34,.2,.84);
      animation-delay: 1s;
    }
  </style>
  </defs>
<rect x="87" y="17" width="1509" height="74" fill="#0665AB" class= "floating-animation"/>
<rect x="87" width="1509" height="74" fill="#005390" class = "floating-animation-up"/>
<path class="floating-animation-up" d="M111.6 53.52L125.52 17.6H128.4L114.48 53.52H111.6ZM135.984 53.52L149.904 17.6H152.784L138.864 53.52H135.984ZM182.353 27.36H185.193L187.553 45.2H187.913L191.433 27.36H194.953L198.473 45.2H198.833L201.193 27.36H203.953L200.793 48H196.633L193.353 30.72H193.033L189.673 48H185.513L182.353 27.36ZM225.337 48C224.084 48 223.191 47.68 222.657 47.04C222.124 46.4 221.791 45.6 221.657 44.64H221.457C221.004 45.84 220.271 46.7867 219.257 47.48C218.271 48.1467 216.937 48.48 215.257 48.48C213.097 48.48 211.377 47.92 210.097 46.8C208.817 45.68 208.177 44.1467 208.177 42.2C208.177 40.28 208.871 38.8 210.257 37.76C211.671 36.72 213.937 36.2 217.057 36.2H221.457V34.16C221.457 32.64 221.031 31.5067 220.177 30.76C219.324 29.9867 218.111 29.6 216.537 29.6C215.151 29.6 214.017 29.88 213.137 30.44C212.257 30.9733 211.551 31.7067 211.017 32.64L208.857 31.04C209.124 30.5067 209.484 29.9867 209.937 29.48C210.391 28.9733 210.951 28.5333 211.617 28.16C212.284 27.76 213.044 27.4533 213.897 27.24C214.751 27 215.697 26.88 216.737 26.88C219.164 26.88 221.084 27.4933 222.497 28.72C223.937 29.9467 224.657 31.6533 224.657 33.84V45.2H227.537V48H225.337ZM215.817 45.8C216.644 45.8 217.391 45.7067 218.057 45.52C218.751 45.3067 219.351 45.04 219.857 44.72C220.364 44.3733 220.751 43.9733 221.017 43.52C221.311 43.04 221.457 42.5333 221.457 42V38.6H217.057C215.137 38.6 213.737 38.8667 212.857 39.4C211.977 39.9333 211.537 40.7067 211.537 41.72V42.56C211.537 43.6267 211.911 44.44 212.657 45C213.431 45.5333 214.484 45.8 215.817 45.8ZM233.842 48V27.36H237.042V30.72H237.202C237.415 30.2133 237.682 29.7333 238.002 29.28C238.322 28.8 238.709 28.3867 239.162 28.04C239.642 27.6933 240.202 27.4133 240.842 27.2C241.482 26.9867 242.229 26.88 243.082 26.88C245.242 26.88 246.975 27.5733 248.282 28.96C249.589 30.32 250.242 32.2533 250.242 34.76V48H247.042V35.32C247.042 33.4267 246.629 32.0267 245.802 31.12C244.975 30.1867 243.762 29.72 242.162 29.72C241.522 29.72 240.895 29.8 240.282 29.96C239.669 30.12 239.122 30.36 238.642 30.68C238.162 31 237.775 31.4133 237.482 31.92C237.189 32.4267 237.042 33.0133 237.042 33.68V48H233.842ZM267.306 48C265.733 48 264.573 47.56 263.826 46.68C263.106 45.8 262.746 44.6667 262.746 43.28V30.08H255.866V27.36H260.986C261.68 27.36 262.16 27.2267 262.426 26.96C262.72 26.6667 262.866 26.1733 262.866 25.48V20.08H265.946V27.36H275.346V30.08H265.946V45.28H275.346V48H267.306ZM290.931 48.48C288.771 48.48 286.904 48.12 285.331 47.4C283.784 46.6533 282.464 45.6667 281.371 44.44L283.531 42.56C284.517 43.6 285.597 44.4 286.771 44.96C287.944 45.52 289.357 45.8 291.011 45.8C292.611 45.8 293.917 45.52 294.931 44.96C295.971 44.3733 296.491 43.4667 296.491 42.24C296.491 41.7067 296.384 41.2667 296.171 40.92C295.984 40.5467 295.717 40.2533 295.371 40.04C295.024 39.8267 294.637 39.6667 294.211 39.56C293.784 39.4267 293.331 39.32 292.851 39.24L289.611 38.76C288.891 38.6533 288.104 38.5067 287.251 38.32C286.424 38.1333 285.664 37.84 284.971 37.44C284.277 37.0133 283.691 36.4533 283.211 35.76C282.757 35.0667 282.531 34.16 282.531 33.04C282.531 32 282.731 31.1067 283.131 30.36C283.557 29.5867 284.144 28.9467 284.891 28.44C285.637 27.9067 286.517 27.52 287.531 27.28C288.544 27.0133 289.651 26.88 290.851 26.88C292.717 26.88 294.331 27.1733 295.691 27.76C297.077 28.3467 298.264 29.16 299.251 30.2L297.171 32.16C296.931 31.8667 296.624 31.5733 296.251 31.28C295.904 30.96 295.464 30.68 294.931 30.44C294.424 30.1733 293.824 29.96 293.131 29.8C292.437 29.64 291.637 29.56 290.731 29.56C289.104 29.56 287.851 29.84 286.971 30.4C286.117 30.96 285.691 31.7733 285.691 32.84C285.691 33.3733 285.784 33.8267 285.971 34.2C286.184 34.5467 286.464 34.8267 286.811 35.04C287.157 35.2533 287.544 35.4267 287.971 35.56C288.424 35.6667 288.877 35.76 289.331 35.84L292.571 36.32C293.317 36.4267 294.104 36.5733 294.931 36.76C295.757 36.9467 296.517 37.2533 297.211 37.68C297.904 38.08 298.477 38.6267 298.931 39.32C299.411 40.0133 299.651 40.92 299.651 42.04C299.651 44.0933 298.851 45.68 297.251 46.8C295.677 47.92 293.571 48.48 290.931 48.48ZM340.459 48C338.886 48 337.726 47.56 336.979 46.68C336.259 45.8 335.899 44.6667 335.899 43.28V30.08H329.019V27.36H334.139C334.833 27.36 335.313 27.2267 335.579 26.96C335.873 26.6667 336.019 26.1733 336.019 25.48V20.08H339.099V27.36H348.499V30.08H339.099V45.28H348.499V48H340.459ZM363.844 48.48C362.404 48.48 361.097 48.2267 359.924 47.72C358.777 47.2133 357.79 46.4933 356.964 45.56C356.164 44.6 355.55 43.4667 355.124 42.16C354.697 40.8267 354.484 39.3333 354.484 37.68C354.484 36.0533 354.697 34.5733 355.124 33.24C355.55 31.9067 356.164 30.7733 356.964 29.84C357.79 28.88 358.777 28.1467 359.924 27.64C361.097 27.1333 362.404 26.88 363.844 26.88C365.284 26.88 366.577 27.1333 367.724 27.64C368.897 28.1467 369.884 28.88 370.684 29.84C371.51 30.7733 372.137 31.9067 372.564 33.24C372.99 34.5733 373.204 36.0533 373.204 37.68C373.204 39.3333 372.99 40.8267 372.564 42.16C372.137 43.4667 371.51 44.6 370.684 45.56C369.884 46.4933 368.897 47.2133 367.724 47.72C366.577 48.2267 365.284 48.48 363.844 48.48ZM363.844 45.72C365.63 45.72 367.07 45.1867 368.164 44.12C369.257 43.0533 369.804 41.4 369.804 39.16V36.2C369.804 33.96 369.257 32.3067 368.164 31.24C367.07 30.1733 365.63 29.64 363.844 29.64C362.057 29.64 360.617 30.1733 359.524 31.24C358.43 32.3067 357.884 33.96 357.884 36.2V39.16C357.884 41.4 358.43 43.0533 359.524 44.12C360.617 45.1867 362.057 45.72 363.844 45.72ZM413.332 48.48C411.839 48.48 410.506 48.2267 409.332 47.72C408.186 47.1867 407.212 46.4533 406.412 45.52C405.612 44.5867 404.999 43.4533 404.572 42.12C404.172 40.7867 403.972 39.3067 403.972 37.68C403.972 36.0533 404.186 34.5733 404.612 33.24C405.039 31.9067 405.652 30.7733 406.452 29.84C407.252 28.88 408.226 28.1467 409.372 27.64C410.519 27.1333 411.826 26.88 413.292 26.88C415.292 26.88 416.919 27.32 418.172 28.2C419.426 29.08 420.346 30.2267 420.932 31.64L418.372 33C417.999 31.9333 417.372 31.1067 416.492 30.52C415.639 29.9333 414.572 29.64 413.292 29.64C412.359 29.64 411.519 29.8 410.772 30.12C410.052 30.4133 409.439 30.84 408.932 31.4C408.426 31.96 408.039 32.6267 407.772 33.4C407.532 34.1733 407.412 35.0133 407.412 35.92V39.44C407.412 40.3467 407.532 41.1867 407.772 41.96C408.039 42.7333 408.426 43.4 408.932 43.96C409.439 44.52 410.066 44.96 410.812 45.28C411.559 45.5733 412.412 45.72 413.372 45.72C414.759 45.72 415.906 45.4 416.812 44.76C417.719 44.12 418.439 43.24 418.972 42.12L421.252 43.68C420.639 45.0667 419.679 46.2133 418.372 47.12C417.092 48.0267 415.412 48.48 413.332 48.48ZM436.997 48.48C435.557 48.48 434.25 48.2267 433.077 47.72C431.93 47.2133 430.944 46.4933 430.117 45.56C429.317 44.6 428.704 43.4667 428.277 42.16C427.85 40.8267 427.637 39.3333 427.637 37.68C427.637 36.0533 427.85 34.5733 428.277 33.24C428.704 31.9067 429.317 30.7733 430.117 29.84C430.944 28.88 431.93 28.1467 433.077 27.64C434.25 27.1333 435.557 26.88 436.997 26.88C438.437 26.88 439.73 27.1333 440.877 27.64C442.05 28.1467 443.037 28.88 443.837 29.84C444.664 30.7733 445.29 31.9067 445.717 33.24C446.144 34.5733 446.357 36.0533 446.357 37.68C446.357 39.3333 446.144 40.8267 445.717 42.16C445.29 43.4667 444.664 44.6 443.837 45.56C443.037 46.4933 442.05 47.2133 440.877 47.72C439.73 48.2267 438.437 48.48 436.997 48.48ZM436.997 45.72C438.784 45.72 440.224 45.1867 441.317 44.12C442.41 43.0533 442.957 41.4 442.957 39.16V36.2C442.957 33.96 442.41 32.3067 441.317 31.24C440.224 30.1733 438.784 29.64 436.997 29.64C435.21 29.64 433.77 30.1733 432.677 31.24C431.584 32.3067 431.037 33.96 431.037 36.2V39.16C431.037 41.4 431.584 43.0533 432.677 44.12C433.77 45.1867 435.21 45.72 436.997 45.72ZM453.301 48V27.36H456.501V30.72H456.661C456.875 30.2133 457.141 29.7333 457.461 29.28C457.781 28.8 458.168 28.3867 458.621 28.04C459.101 27.6933 459.661 27.4133 460.301 27.2C460.941 26.9867 461.688 26.88 462.541 26.88C464.701 26.88 466.435 27.5733 467.741 28.96C469.048 30.32 469.701 32.2533 469.701 34.76V48H466.501V35.32C466.501 33.4267 466.088 32.0267 465.261 31.12C464.435 30.1867 463.221 29.72 461.621 29.72C460.981 29.72 460.355 29.8 459.741 29.96C459.128 30.12 458.581 30.36 458.101 30.68C457.621 31 457.235 31.4133 456.941 31.92C456.648 32.4267 456.501 33.0133 456.501 33.68V48H453.301ZM486.766 48C485.192 48 484.032 47.56 483.286 46.68C482.566 45.8 482.206 44.6667 482.206 43.28V30.08H475.326V27.36H480.446C481.139 27.36 481.619 27.2267 481.886 26.96C482.179 26.6667 482.326 26.1733 482.326 25.48V20.08H485.406V27.36H494.806V30.08H485.406V45.28H494.806V48H486.766ZM501.23 45.28H507.27V30.08H501.23V27.36H510.47V32.56H510.67C511.097 30.9333 511.897 29.6667 513.07 28.76C514.27 27.8267 515.79 27.36 517.63 27.36H520.51V30.56H516.63C514.79 30.56 513.297 31.0933 512.15 32.16C511.03 33.2267 510.47 34.6267 510.47 36.36V45.28H518.47V48H501.23V45.28ZM535.814 22.8C534.881 22.8 534.228 22.6133 533.854 22.24C533.481 21.84 533.294 21.3467 533.294 20.76V20.12C533.294 19.5333 533.481 19.0533 533.854 18.68C534.228 18.28 534.881 18.08 535.814 18.08C536.748 18.08 537.401 18.28 537.774 18.68C538.148 19.0533 538.334 19.5333 538.334 20.12V20.76C538.334 21.3467 538.148 21.84 537.774 22.24C537.401 22.6133 536.748 22.8 535.814 22.8ZM526.774 45.28H534.214V30.08H526.774V27.36H537.414V45.28H544.374V48H526.774V45.28ZM550.719 18.4H553.919V30.72H554.079C555.412 28.16 557.532 26.88 560.439 26.88C562.972 26.88 564.945 27.8267 566.359 29.72C567.799 31.6133 568.519 34.2667 568.519 37.68C568.519 41.0933 567.799 43.7467 566.359 45.64C564.945 47.5333 562.972 48.48 560.439 48.48C557.532 48.48 555.412 47.2 554.079 44.64H553.919V48H550.719V18.4ZM559.199 45.64C561.065 45.64 562.505 45.08 563.519 43.96C564.559 42.8133 565.079 41.3067 565.079 39.44V35.92C565.079 34.0533 564.559 32.56 563.519 31.44C562.505 30.2933 561.065 29.72 559.199 29.72C558.479 29.72 557.799 29.8133 557.159 30C556.519 30.1867 555.959 30.4667 555.479 30.84C554.999 31.1867 554.612 31.6267 554.319 32.16C554.052 32.6667 553.919 33.2667 553.919 33.96V41.4C553.919 42.0933 554.052 42.7067 554.319 43.24C554.612 43.7467 554.999 44.1867 555.479 44.56C555.959 44.9067 556.519 45.1733 557.159 45.36C557.799 45.5467 558.479 45.64 559.199 45.64ZM588.183 44.64H588.023C587.81 45.1467 587.543 45.64 587.223 46.12C586.903 46.5733 586.503 46.9733 586.023 47.32C585.57 47.6667 585.023 47.9467 584.383 48.16C583.743 48.3733 582.996 48.48 582.143 48.48C579.983 48.48 578.25 47.8 576.943 46.44C575.636 45.0533 574.983 43.1067 574.983 40.6V27.36H578.183V40.04C578.183 41.9333 578.596 43.3467 579.423 44.28C580.25 45.1867 581.463 45.64 583.063 45.64C583.703 45.64 584.33 45.56 584.943 45.4C585.556 45.24 586.103 45 586.583 44.68C587.063 44.36 587.45 43.96 587.743 43.48C588.036 42.9733 588.183 42.3733 588.183 41.68V27.36H591.383V48H588.183V44.64ZM608.688 48C607.114 48 605.954 47.56 605.208 46.68C604.488 45.8 604.128 44.6667 604.128 43.28V30.08H597.248V27.36H602.368C603.061 27.36 603.541 27.2267 603.808 26.96C604.101 26.6667 604.248 26.1733 604.248 25.48V20.08H607.328V27.36H616.728V30.08H607.328V45.28H616.728V48H608.688ZM632.432 48.48C630.939 48.48 629.592 48.2267 628.392 47.72C627.219 47.2133 626.205 46.4933 625.352 45.56C624.525 44.6 623.885 43.4667 623.432 42.16C622.979 40.8267 622.752 39.3467 622.752 37.72C622.752 36.0667 622.979 34.5733 623.432 33.24C623.912 31.9067 624.565 30.7733 625.392 29.84C626.219 28.88 627.205 28.1467 628.352 27.64C629.525 27.1333 630.819 26.88 632.232 26.88C633.619 26.88 634.872 27.1333 635.992 27.64C637.139 28.1467 638.112 28.8533 638.912 29.76C639.712 30.64 640.325 31.6933 640.752 32.92C641.179 34.1467 641.392 35.4933 641.392 36.96V38.48H626.112V39.44C626.112 40.3467 626.259 41.1867 626.552 41.96C626.845 42.7333 627.259 43.4 627.792 43.96C628.352 44.52 629.019 44.96 629.792 45.28C630.592 45.5733 631.472 45.72 632.432 45.72C633.819 45.72 635.019 45.4 636.032 44.76C637.045 44.12 637.819 43.24 638.352 42.12L640.712 43.72C640.099 45.1067 639.072 46.2533 637.632 47.16C636.219 48.04 634.485 48.48 632.432 48.48ZM632.232 29.52C631.352 29.52 630.539 29.68 629.792 30C629.045 30.32 628.392 30.76 627.832 31.32C627.299 31.88 626.872 32.5467 626.552 33.32C626.259 34.0667 626.112 34.8933 626.112 35.8V36.08H637.952V35.64C637.952 34.7333 637.805 33.9067 637.512 33.16C637.245 32.4133 636.859 31.7733 636.352 31.24C635.872 30.68 635.272 30.2533 634.552 29.96C633.859 29.6667 633.085 29.52 632.232 29.52ZM681.841 48C680.267 48 679.107 47.56 678.361 46.68C677.641 45.8 677.281 44.6667 677.281 43.28V30.08H670.401V27.36H675.521C676.214 27.36 676.694 27.2267 676.961 26.96C677.254 26.6667 677.401 26.1733 677.401 25.48V20.08H680.481V27.36H689.881V30.08H680.481V45.28H689.881V48H681.841ZM697.145 18.4H700.345V30.72H700.505C700.718 30.2133 700.985 29.7333 701.305 29.28C701.625 28.8 702.012 28.3867 702.465 28.04C702.945 27.6933 703.505 27.4133 704.145 27.2C704.785 26.9867 705.532 26.88 706.385 26.88C708.545 26.88 710.278 27.5733 711.585 28.96C712.892 30.32 713.545 32.2533 713.545 34.76V48H710.345V35.32C710.345 33.4267 709.932 32.0267 709.105 31.12C708.278 30.1867 707.065 29.72 705.465 29.72C704.825 29.72 704.198 29.8 703.585 29.96C702.972 30.12 702.425 30.36 701.945 30.68C701.465 31 701.078 31.4133 700.785 31.92C700.492 32.4267 700.345 33.0133 700.345 33.68V48H697.145V18.4ZM720.689 45.28H726.729V30.08H720.689V27.36H729.929V32.56H730.129C730.556 30.9333 731.356 29.6667 732.529 28.76C733.729 27.8267 735.249 27.36 737.089 27.36H739.969V30.56H736.089C734.249 30.56 732.756 31.0933 731.609 32.16C730.489 33.2267 729.929 34.6267 729.929 36.36V45.28H737.929V48H720.689V45.28ZM753.994 48.48C752.554 48.48 751.247 48.2267 750.074 47.72C748.927 47.2133 747.94 46.4933 747.114 45.56C746.314 44.6 745.7 43.4667 745.274 42.16C744.847 40.8267 744.634 39.3333 744.634 37.68C744.634 36.0533 744.847 34.5733 745.274 33.24C745.7 31.9067 746.314 30.7733 747.114 29.84C747.94 28.88 748.927 28.1467 750.074 27.64C751.247 27.1333 752.554 26.88 753.994 26.88C755.434 26.88 756.727 27.1333 757.874 27.64C759.047 28.1467 760.034 28.88 760.834 29.84C761.66 30.7733 762.287 31.9067 762.714 33.24C763.14 34.5733 763.354 36.0533 763.354 37.68C763.354 39.3333 763.14 40.8267 762.714 42.16C762.287 43.4667 761.66 44.6 760.834 45.56C760.034 46.4933 759.047 47.2133 757.874 47.72C756.727 48.2267 755.434 48.48 753.994 48.48ZM753.994 45.72C755.78 45.72 757.22 45.1867 758.314 44.12C759.407 43.0533 759.954 41.4 759.954 39.16V36.2C759.954 33.96 759.407 32.3067 758.314 31.24C757.22 30.1733 755.78 29.64 753.994 29.64C752.207 29.64 750.767 30.1733 749.674 31.24C748.58 32.3067 748.034 33.96 748.034 36.2V39.16C748.034 41.4 748.58 43.0533 749.674 44.12C750.767 45.1867 752.207 45.72 753.994 45.72ZM783.258 44.64H783.098C782.885 45.1467 782.618 45.64 782.298 46.12C781.978 46.5733 781.578 46.9733 781.098 47.32C780.645 47.6667 780.098 47.9467 779.458 48.16C778.818 48.3733 778.071 48.48 777.218 48.48C775.058 48.48 773.325 47.8 772.018 46.44C770.711 45.0533 770.058 43.1067 770.058 40.6V27.36H773.258V40.04C773.258 41.9333 773.671 43.3467 774.498 44.28C775.325 45.1867 776.538 45.64 778.138 45.64C778.778 45.64 779.405 45.56 780.018 45.4C780.631 45.24 781.178 45 781.658 44.68C782.138 44.36 782.525 43.96 782.818 43.48C783.111 42.9733 783.258 42.3733 783.258 41.68V27.36H786.458V48H783.258V44.64ZM813.203 50.36C813.203 52.44 812.336 53.9733 810.603 54.96C808.869 55.9733 806.269 56.48 802.803 56.48C799.469 56.48 797.069 56.04 795.603 55.16C794.163 54.28 793.443 53.0133 793.443 51.36C793.443 50.24 793.736 49.3733 794.323 48.76C794.909 48.1467 795.736 47.6933 796.803 47.4V46.92C796.216 46.6267 795.763 46.2533 795.443 45.8C795.123 45.3467 794.963 44.7733 794.963 44.08C794.963 43.0133 795.309 42.2133 796.003 41.68C796.723 41.1467 797.616 40.7467 798.683 40.48V40.32C797.403 39.76 796.403 38.9333 795.683 37.84C794.989 36.7467 794.643 35.4667 794.643 34C794.643 32.96 794.829 32 795.203 31.12C795.576 30.24 796.109 29.4933 796.803 28.88C797.523 28.24 798.376 27.7467 799.363 27.4C800.349 27.0533 801.443 26.88 802.643 26.88C804.189 26.88 805.549 27.16 806.723 27.72V27.36C806.723 26.56 806.909 25.8933 807.283 25.36C807.656 24.8267 808.296 24.56 809.203 24.56H813.003V27.36H808.363V28.76C809.109 29.4 809.683 30.16 810.083 31.04C810.483 31.92 810.683 32.9067 810.683 34C810.683 35.04 810.483 36 810.083 36.88C809.709 37.76 809.176 38.52 808.483 39.16C807.789 39.7733 806.936 40.2533 805.923 40.6C804.936 40.9467 803.843 41.12 802.643 41.12C802.296 41.12 801.963 41.1067 801.643 41.08C801.323 41.0533 801.003 41.0133 800.683 40.96C800.363 41.0133 800.029 41.1067 799.683 41.24C799.336 41.3467 799.016 41.5067 798.723 41.72C798.429 41.9067 798.189 42.1333 798.003 42.4C797.816 42.6667 797.723 42.9733 797.723 43.32C797.723 43.9333 798.029 44.3467 798.643 44.56C799.256 44.7467 800.056 44.84 801.043 44.84H805.603C808.269 44.84 810.203 45.3467 811.403 46.36C812.603 47.3467 813.203 48.68 813.203 50.36ZM810.203 50.52C810.203 49.6933 809.869 49.0267 809.203 48.52C808.536 48.04 807.376 47.8 805.723 47.8H798.563C797.176 48.36 796.483 49.2933 796.483 50.6C796.483 51.5067 796.843 52.28 797.563 52.92C798.283 53.5867 799.483 53.92 801.163 53.92H804.283C806.149 53.92 807.603 53.6267 808.643 53.04C809.683 52.48 810.203 51.64 810.203 50.52ZM802.643 38.64C804.243 38.64 805.416 38.2667 806.163 37.52C806.936 36.7733 807.323 35.7867 807.323 34.56V33.4C807.323 32.1733 806.936 31.2 806.163 30.48C805.416 29.7333 804.243 29.36 802.643 29.36C801.043 29.36 799.869 29.7333 799.123 30.48C798.376 31.2 798.003 32.1733 798.003 33.4V34.56C798.003 35.7867 798.376 36.7733 799.123 37.52C799.869 38.2667 801.043 38.64 802.643 38.64ZM819.067 18.4H822.267V30.72H822.427C822.64 30.2133 822.907 29.7333 823.227 29.28C823.547 28.8 823.934 28.3867 824.387 28.04C824.867 27.6933 825.427 27.4133 826.067 27.2C826.707 26.9867 827.454 26.88 828.307 26.88C830.467 26.88 832.2 27.5733 833.507 28.96C834.814 30.32 835.467 32.2533 835.467 34.76V48H832.267V35.32C832.267 33.4267 831.854 32.0267 831.027 31.12C830.2 30.1867 828.987 29.72 827.387 29.72C826.747 29.72 826.12 29.8 825.507 29.96C824.894 30.12 824.347 30.36 823.867 30.68C823.387 31 823 31.4133 822.707 31.92C822.414 32.4267 822.267 33.0133 822.267 33.68V48H819.067V18.4ZM879.636 44.24H879.356C878.822 45.4933 878.076 46.52 877.116 47.32C876.182 48.0933 874.889 48.48 873.236 48.48C872.089 48.48 871.036 48.2667 870.076 47.84C869.142 47.4133 868.329 46.76 867.636 45.88C866.969 45 866.436 43.88 866.036 42.52C865.662 41.16 865.476 39.5467 865.476 37.68C865.476 35.8133 865.662 34.2 866.036 32.84C866.436 31.48 866.969 30.36 867.636 29.48C868.329 28.6 869.142 27.9467 870.076 27.52C871.036 27.0933 872.089 26.88 873.236 26.88C874.062 26.88 874.796 26.9867 875.436 27.2C876.076 27.4133 876.636 27.7067 877.116 28.08C877.622 28.4533 878.049 28.9067 878.396 29.44C878.769 29.9467 879.089 30.5067 879.356 31.12H879.636V18.4H885.556V48H879.636V44.24ZM875.796 43.88C876.836 43.88 877.729 43.6267 878.476 43.12C879.249 42.6133 879.636 41.8133 879.636 40.72V34.64C879.636 33.5467 879.249 32.7467 878.476 32.24C877.729 31.7333 876.836 31.48 875.796 31.48C874.462 31.48 873.436 31.8933 872.716 32.72C871.996 33.52 871.636 34.64 871.636 36.08V39.28C871.636 40.72 871.996 41.8533 872.716 42.68C873.436 43.48 874.462 43.88 875.796 43.88ZM900.86 48.48C897.393 48.48 894.767 47.52 892.98 45.6C891.193 43.68 890.3 41.0667 890.3 37.76C890.3 36.08 890.527 34.5733 890.98 33.24C891.46 31.88 892.127 30.7333 892.98 29.8C893.86 28.84 894.913 28.12 896.14 27.64C897.393 27.1333 898.793 26.88 900.34 26.88C901.887 26.88 903.273 27.1333 904.5 27.64C905.727 28.12 906.767 28.8133 907.62 29.72C908.473 30.6267 909.127 31.7333 909.58 33.04C910.06 34.32 910.3 35.76 910.3 37.36V39.12H896.18V39.48C896.18 40.8133 896.593 41.8933 897.42 42.72C898.247 43.52 899.46 43.92 901.06 43.92C902.287 43.92 903.34 43.6933 904.22 43.24C905.1 42.76 905.86 42.1333 906.5 41.36L909.7 44.84C908.9 45.8267 907.78 46.68 906.34 47.4C904.9 48.12 903.073 48.48 900.86 48.48ZM900.38 31.12C899.1 31.12 898.073 31.52 897.3 32.32C896.553 33.0933 896.18 34.1467 896.18 35.48V35.8H904.5V35.48C904.5 34.12 904.127 33.0533 903.38 32.28C902.66 31.5067 901.66 31.12 900.38 31.12ZM924.444 48.48C922.151 48.48 920.151 48.1333 918.444 47.44C916.764 46.7467 915.498 45.8 914.644 44.6L917.964 41.52C918.764 42.4 919.698 43.0933 920.764 43.6C921.858 44.08 923.098 44.32 924.484 44.32C925.658 44.32 926.578 44.1467 927.244 43.8C927.911 43.4267 928.244 42.8667 928.244 42.12C928.244 41.5333 928.018 41.1333 927.564 40.92C927.111 40.68 926.484 40.4933 925.684 40.36L922.364 39.84C921.431 39.7067 920.564 39.5067 919.764 39.24C918.964 38.9467 918.271 38.56 917.684 38.08C917.098 37.6 916.631 37.0133 916.284 36.32C915.938 35.6267 915.764 34.7867 915.764 33.8C915.764 31.64 916.591 29.9467 918.244 28.72C919.898 27.4933 922.218 26.88 925.204 26.88C927.231 26.88 928.951 27.16 930.364 27.72C931.804 28.2533 932.951 29.0267 933.804 30.04L930.844 33.4C930.231 32.7333 929.444 32.1733 928.484 31.72C927.524 31.2667 926.364 31.04 925.004 31.04C922.711 31.04 921.564 31.7333 921.564 33.12C921.564 33.7333 921.791 34.16 922.244 34.4C922.698 34.6133 923.324 34.7867 924.124 34.92L927.404 35.44C928.338 35.5733 929.204 35.7867 930.004 36.08C930.804 36.3467 931.498 36.72 932.084 37.2C932.698 37.68 933.178 38.2667 933.524 38.96C933.871 39.6533 934.044 40.4933 934.044 41.48C934.044 43.64 933.204 45.3467 931.524 46.6C929.871 47.8533 927.511 48.48 924.444 48.48ZM950.349 24.72C949.015 24.72 948.082 24.4533 947.549 23.92C947.042 23.36 946.789 22.6933 946.789 21.92V20.76C946.789 19.96 947.042 19.2933 947.549 18.76C948.082 18.2267 949.015 17.96 950.349 17.96C951.682 17.96 952.602 18.2267 953.109 18.76C953.642 19.2933 953.909 19.96 953.909 20.76V21.92C953.909 22.6933 953.642 23.36 953.109 23.92C952.602 24.4533 951.682 24.72 950.349 24.72ZM940.829 43.4H947.389V31.96H940.829V27.36H953.309V43.4H959.389V48H940.829V43.4ZM984.773 50.08C984.773 52.2667 983.853 53.88 982.013 54.92C980.173 55.96 977.28 56.48 973.333 56.48C971.36 56.48 969.733 56.36 968.453 56.12C967.173 55.9067 966.146 55.5867 965.373 55.16C964.626 54.7333 964.093 54.2267 963.773 53.64C963.48 53.0533 963.333 52.4133 963.333 51.72C963.333 50.5467 963.68 49.6533 964.373 49.04C965.066 48.4533 966.04 48 967.293 47.68V47.44C966.413 47.1733 965.706 46.8 965.173 46.32C964.666 45.8133 964.413 45.1067 964.413 44.2C964.413 43.1867 964.746 42.44 965.413 41.96C966.106 41.48 967.013 41.1067 968.133 40.84V40.6C966.906 40.0133 965.946 39.1867 965.253 38.12C964.586 37.0533 964.253 35.76 964.253 34.24C964.253 33.04 964.466 31.9867 964.893 31.08C965.32 30.1467 965.92 29.3733 966.693 28.76C967.493 28.1467 968.44 27.68 969.533 27.36C970.626 27.04 971.853 26.88 973.213 26.88C974.52 26.88 975.733 27.0267 976.853 27.32V26.2C976.853 25.4 977.133 24.7333 977.693 24.2C978.253 23.6667 979.026 23.4 980.013 23.4H983.653V27.72H978.693V28.08C979.813 28.6667 980.68 29.48 981.293 30.52C981.933 31.5333 982.253 32.7733 982.253 34.24C982.253 35.44 982.04 36.4933 981.613 37.4C981.186 38.3067 980.573 39.08 979.773 39.72C978.973 40.3333 978.013 40.8 976.893 41.12C975.8 41.44 974.573 41.6 973.213 41.6C972.6 41.6 972.013 41.5733 971.453 41.52C970.893 41.44 970.36 41.3333 969.853 41.2C969.56 41.36 969.306 41.56 969.093 41.8C968.906 42.04 968.813 42.3467 968.813 42.72C968.813 43.04 968.893 43.2933 969.053 43.48C969.213 43.6667 969.426 43.8133 969.693 43.92C969.986 44 970.32 44.0533 970.693 44.08C971.066 44.1067 971.453 44.12 971.853 44.12H976.573C978.04 44.12 979.293 44.2667 980.333 44.56C981.373 44.8533 982.226 45.2667 982.893 45.8C983.56 46.3333 984.04 46.96 984.333 47.68C984.626 48.4 984.773 49.2 984.773 50.08ZM979.173 50.52C979.173 49.9867 978.96 49.56 978.533 49.24C978.106 48.9467 977.293 48.8 976.093 48.8H969.013C968.48 49.2533 968.213 49.8133 968.213 50.48C968.213 51.12 968.48 51.64 969.013 52.04C969.573 52.4667 970.506 52.68 971.813 52.68H975.293C976.653 52.68 977.64 52.4933 978.253 52.12C978.866 51.7467 979.173 51.2133 979.173 50.52ZM973.213 37.84C974.413 37.84 975.28 37.5467 975.813 36.96C976.373 36.3733 976.653 35.6267 976.653 34.72V33.76C976.653 32.8533 976.373 32.1067 975.813 31.52C975.28 30.9333 974.413 30.64 973.213 30.64C972.04 30.64 971.186 30.9333 970.653 31.52C970.12 32.1067 969.853 32.8533 969.853 33.76V34.72C969.853 35.6267 970.12 36.3733 970.653 36.96C971.186 37.5467 972.04 37.84 973.213 37.84ZM988.438 48V27.36H994.358V31.12H994.598C994.838 30.5333 995.131 29.9867 995.478 29.48C995.824 28.9733 996.238 28.5333 996.718 28.16C997.224 27.76 997.798 27.4533 998.438 27.24C999.104 27 999.851 26.88 1000.68 26.88C1001.66 26.88 1002.57 27.0533 1003.4 27.4C1004.22 27.72 1004.93 28.2133 1005.52 28.88C1006.1 29.5467 1006.56 30.36 1006.88 31.32C1007.22 32.28 1007.4 33.3867 1007.4 34.64V48H1001.48V35.44C1001.48 32.7733 1000.32 31.44 997.998 31.44C997.544 31.44 997.091 31.5067 996.638 31.64C996.211 31.7467 995.824 31.9333 995.478 32.2C995.131 32.44 994.851 32.7467 994.638 33.12C994.451 33.4933 994.358 33.9333 994.358 34.44V48H988.438ZM1054.41 48C1053.15 48 1052.26 47.68 1051.73 47.04C1051.19 46.4 1050.86 45.6 1050.73 44.64H1050.53C1050.07 45.84 1049.34 46.7867 1048.33 47.48C1047.34 48.1467 1046.01 48.48 1044.33 48.48C1042.17 48.48 1040.45 47.92 1039.17 46.8C1037.89 45.68 1037.25 44.1467 1037.25 42.2C1037.25 40.28 1037.94 38.8 1039.33 37.76C1040.74 36.72 1043.01 36.2 1046.13 36.2H1050.53V34.16C1050.53 32.64 1050.1 31.5067 1049.25 30.76C1048.39 29.9867 1047.18 29.6 1045.61 29.6C1044.22 29.6 1043.09 29.88 1042.21 30.44C1041.33 30.9733 1040.62 31.7067 1040.09 32.64L1037.93 31.04C1038.19 30.5067 1038.55 29.9867 1039.01 29.48C1039.46 28.9733 1040.02 28.5333 1040.69 28.16C1041.35 27.76 1042.11 27.4533 1042.97 27.24C1043.82 27 1044.77 26.88 1045.81 26.88C1048.23 26.88 1050.15 27.4933 1051.57 28.72C1053.01 29.9467 1053.73 31.6533 1053.73 33.84V45.2H1056.61V48H1054.41ZM1044.89 45.8C1045.71 45.8 1046.46 45.7067 1047.13 45.52C1047.82 45.3067 1048.42 45.04 1048.93 44.72C1049.43 44.3733 1049.82 43.9733 1050.09 43.52C1050.38 43.04 1050.53 42.5333 1050.53 42V38.6H1046.13C1044.21 38.6 1042.81 38.8667 1041.93 39.4C1041.05 39.9333 1040.61 40.7067 1040.61 41.72V42.56C1040.61 43.6267 1040.98 44.44 1041.73 45C1042.5 45.5333 1043.55 45.8 1044.89 45.8ZM1062.91 48V27.36H1066.11V30.72H1066.27C1066.48 30.2133 1066.75 29.7333 1067.07 29.28C1067.39 28.8 1067.78 28.3867 1068.23 28.04C1068.71 27.6933 1069.27 27.4133 1069.91 27.2C1070.55 26.9867 1071.3 26.88 1072.15 26.88C1074.31 26.88 1076.04 27.5733 1077.35 28.96C1078.66 30.32 1079.31 32.2533 1079.31 34.76V48H1076.11V35.32C1076.11 33.4267 1075.7 32.0267 1074.87 31.12C1074.04 30.1867 1072.83 29.72 1071.23 29.72C1070.59 29.72 1069.96 29.8 1069.35 29.96C1068.74 30.12 1068.19 30.36 1067.71 30.68C1067.23 31 1066.84 31.4133 1066.55 31.92C1066.26 32.4267 1066.11 33.0133 1066.11 33.68V48H1062.91ZM1100.38 44.64H1100.22C1098.88 47.2 1096.76 48.48 1093.86 48.48C1091.32 48.48 1089.34 47.5333 1087.9 45.64C1086.48 43.7467 1085.78 41.0933 1085.78 37.68C1085.78 34.2667 1086.48 31.6133 1087.9 29.72C1089.34 27.8267 1091.32 26.88 1093.86 26.88C1096.76 26.88 1098.88 28.16 1100.22 30.72H1100.38V18.4H1103.57V48H1100.38V44.64ZM1095.1 45.64C1095.82 45.64 1096.5 45.5467 1097.14 45.36C1097.78 45.1733 1098.34 44.9067 1098.82 44.56C1099.3 44.1867 1099.67 43.7467 1099.94 43.24C1100.23 42.7067 1100.38 42.0933 1100.38 41.4V33.96C1100.38 33.2667 1100.23 32.6667 1099.94 32.16C1099.67 31.6267 1099.3 31.1867 1098.82 30.84C1098.34 30.4667 1097.78 30.1867 1097.14 30C1096.5 29.8133 1095.82 29.72 1095.1 29.72C1093.23 29.72 1091.78 30.2933 1090.74 31.44C1089.72 32.56 1089.22 34.0533 1089.22 35.92V39.44C1089.22 41.3067 1089.72 42.8133 1090.74 43.96C1091.78 45.08 1093.23 45.64 1095.1 45.64ZM1144.98 48.48C1143.36 48.48 1141.89 48.24 1140.58 47.76C1139.3 47.2533 1138.21 46.5333 1137.3 45.6C1136.42 44.6667 1135.74 43.5333 1135.26 42.2C1134.78 40.8667 1134.54 39.36 1134.54 37.68C1134.54 36 1134.78 34.4933 1135.26 33.16C1135.74 31.8267 1136.42 30.6933 1137.3 29.76C1138.21 28.8267 1139.3 28.12 1140.58 27.64C1141.89 27.1333 1143.34 26.88 1144.94 26.88C1147.21 26.88 1149.02 27.3467 1150.38 28.28C1151.77 29.1867 1152.82 30.4 1153.54 31.92L1148.98 34.4C1148.61 33.6 1148.12 32.9333 1147.5 32.4C1146.92 31.8667 1146.06 31.6 1144.94 31.6C1143.58 31.6 1142.53 32 1141.78 32.8C1141.06 33.5733 1140.7 34.64 1140.7 36V39.36C1140.7 40.72 1141.06 41.8 1141.78 42.6C1142.53 43.3733 1143.61 43.76 1145.02 43.76C1146.17 43.76 1147.06 43.4933 1147.7 42.96C1148.37 42.4267 1148.93 41.7333 1149.38 40.88L1153.86 43.44C1153.12 44.96 1152.02 46.1867 1150.58 47.12C1149.17 48.0267 1147.3 48.48 1144.98 48.48ZM1168.53 48.48C1166.93 48.48 1165.49 48.24 1164.21 47.76C1162.93 47.2533 1161.83 46.5333 1160.93 45.6C1160.05 44.6667 1159.37 43.5333 1158.89 42.2C1158.41 40.8667 1158.17 39.36 1158.17 37.68C1158.17 36 1158.41 34.4933 1158.89 33.16C1159.37 31.8267 1160.05 30.6933 1160.93 29.76C1161.83 28.8267 1162.93 28.12 1164.21 27.64C1165.49 27.1333 1166.93 26.88 1168.53 26.88C1170.13 26.88 1171.57 27.1333 1172.85 27.64C1174.13 28.12 1175.21 28.8267 1176.09 29.76C1176.99 30.6933 1177.69 31.8267 1178.17 33.16C1178.65 34.4933 1178.89 36 1178.89 37.68C1178.89 39.36 1178.65 40.8667 1178.17 42.2C1177.69 43.5333 1176.99 44.6667 1176.09 45.6C1175.21 46.5333 1174.13 47.2533 1172.85 47.76C1171.57 48.24 1170.13 48.48 1168.53 48.48ZM1168.53 44.08C1169.86 44.08 1170.9 43.6667 1171.65 42.84C1172.39 42.0133 1172.77 40.84 1172.77 39.32V36.04C1172.77 34.52 1172.39 33.3467 1171.65 32.52C1170.9 31.6933 1169.86 31.28 1168.53 31.28C1167.19 31.28 1166.15 31.6933 1165.41 32.52C1164.66 33.3467 1164.29 34.52 1164.29 36.04V39.32C1164.29 40.84 1164.66 42.0133 1165.41 42.84C1166.15 43.6667 1167.19 44.08 1168.53 44.08ZM1196.63 44.24H1196.35C1195.82 45.4933 1195.07 46.52 1194.11 47.32C1193.18 48.0933 1191.89 48.48 1190.23 48.48C1189.09 48.48 1188.03 48.2667 1187.07 47.84C1186.14 47.4133 1185.33 46.76 1184.63 45.88C1183.97 45 1183.43 43.88 1183.03 42.52C1182.66 41.16 1182.47 39.5467 1182.47 37.68C1182.47 35.8133 1182.66 34.2 1183.03 32.84C1183.43 31.48 1183.97 30.36 1184.63 29.48C1185.33 28.6 1186.14 27.9467 1187.07 27.52C1188.03 27.0933 1189.09 26.88 1190.23 26.88C1191.06 26.88 1191.79 26.9867 1192.43 27.2C1193.07 27.4133 1193.63 27.7067 1194.11 28.08C1194.62 28.4533 1195.05 28.9067 1195.39 29.44C1195.77 29.9467 1196.09 30.5067 1196.35 31.12H1196.63V18.4H1202.55V48H1196.63V44.24ZM1192.79 43.88C1193.83 43.88 1194.73 43.6267 1195.47 43.12C1196.25 42.6133 1196.63 41.8133 1196.63 40.72V34.64C1196.63 33.5467 1196.25 32.7467 1195.47 32.24C1194.73 31.7333 1193.83 31.48 1192.79 31.48C1191.46 31.48 1190.43 31.8933 1189.71 32.72C1188.99 33.52 1188.63 34.64 1188.63 36.08V39.28C1188.63 40.72 1188.99 41.8533 1189.71 42.68C1190.43 43.48 1191.46 43.88 1192.79 43.88ZM1217.86 48.48C1214.39 48.48 1211.76 47.52 1209.98 45.6C1208.19 43.68 1207.3 41.0667 1207.3 37.76C1207.3 36.08 1207.52 34.5733 1207.98 33.24C1208.46 31.88 1209.12 30.7333 1209.98 29.8C1210.86 28.84 1211.91 28.12 1213.14 27.64C1214.39 27.1333 1215.79 26.88 1217.34 26.88C1218.88 26.88 1220.27 27.1333 1221.5 27.64C1222.72 28.12 1223.76 28.8133 1224.62 29.72C1225.47 30.6267 1226.12 31.7333 1226.58 33.04C1227.06 34.32 1227.3 35.76 1227.3 37.36V39.12H1213.18V39.48C1213.18 40.8133 1213.59 41.8933 1214.42 42.72C1215.24 43.52 1216.46 43.92 1218.06 43.92C1219.28 43.92 1220.34 43.6933 1221.22 43.24C1222.1 42.76 1222.86 42.1333 1223.5 41.36L1226.7 44.84C1225.9 45.8267 1224.78 46.68 1223.34 47.4C1221.9 48.12 1220.07 48.48 1217.86 48.48ZM1217.38 31.12C1216.1 31.12 1215.07 31.52 1214.3 32.32C1213.55 33.0933 1213.18 34.1467 1213.18 35.48V35.8H1221.5V35.48C1221.5 34.12 1221.12 33.0533 1220.38 32.28C1219.66 31.5067 1218.66 31.12 1217.38 31.12Z" fill="#EEEEEE"/>
</svg>
